<?xml version="1.0" encoding="UTF-8"?>
<svg id="Layer_1" data-name="Layer 1" xmlns="http://www.w3.org/2000/svg" xmlns:xlink="http://www.w3.org/1999/xlink" viewBox="0 0 612 792">
  <defs>
    <style>
      .cls-1 {
        fill: none;
      }

      .cls-1, .cls-2 {
        stroke-width: 0px;
      }

      .cls-3 {
        fill: url(#New_Pattern_4);
        stroke: #57181b;
        stroke-miterlimit: 10;
      }

      .cls-2 {
        fill: #6c3538;
      }
    </style>
    <pattern id="New_Pattern_4" data-name="New Pattern 4" x="0" y="0" width="256.86" height="291.88" patternTransform="translate(0 -812)" patternUnits="userSpaceOnUse" viewBox="0 0 256.86 291.88">
      <g>
        <rect class="cls-1" width="256.86" height="291.88"/>
        <g>
          <path class="cls-2" d="M149.13,330.37c.31.1.79-.53.68.59-.5,3.48-2.2,5.98-2.71,9.46.15.12.3.24.45.37-.65,1.96-1.32,3.99-2.02,6.1l15.55,3.3c.18-.62.37-1.29.56-1.96.92-5.24,1.78-10.46,2.59-15.66-.21.1-.4.13-.37-.4.27-2.18,1.02-5.12,1.66-8.2.06-.46.11-.92.17-1.38-.04-.37-.21-.5-.31-.57.28-1.39.57-2.62.84-3.76l.24-2.02.12-1.01.06-.48-.02-.1c-.04-.27-.08-.59-.1-.96-.05-.73-.08-1.66-.06-2.8.03-2.27.2-5.39.57-9.52.54.45,1.38,1.7,2.48,3.65.83.87,1.93,2.45,2.94,4.58.34.78.68,1.65,1.01,2.56.41,1.17.83,2.38,1.25,3.58.89,2.64,1.78,5.27,2.57,7.58l3.35-3.36c-.22-.08-.41-.15-.6-.22.09,2-11.67-1.3-10.02,1.28-2.28-.86-5.4-2.03-7.06-2.44l-4.84-1.18,4.69-2.73c.56-.33.89-.58.9-.74.06-1.75,1.66-4.45,9.35-8.94,3.07-1.62,8.19-3.2,9.18-3.99,1.55-1.25-4.55.83-3-.41-6.42,2.72-12.75,5.49-19.02,8.3l-19.01,8.51,19.6,7.13c5.37,1.95,10.73,3.87,16.09,5.77l17.05,6.04-6.32-16.8c-1.12-2.99-2.25-5.97-3.37-8.96-2.06-5.54-4.12-11.08-6.19-16.64-4.38-11.87-8.79-23.82-13.25-35.89-.39-.9-.92-2.21-1.64-4.01-.95,5.71-2.39,13.96-4.13,23.64-1.72,9.46-3.75,20.59-5.88,32.34-1.18,6.46-2.42,13.26-3.62,19.83-1.18,6.24-2.31,12.26-3.3,17.53l14.03,2.98c1.5-6.32,2.76-11.5,3.59-14.68.1-.45.2-.91.29-1.36,2-8.09,4.18-17.99,5.11-25.02.32-3.25.55-6.58.81-9.88-.64,1.41-1.26,2.72-1.84,3.84.8-3.24,1.6-6.48,1.57-7.8.85-7.09-.97-3.39-2.82-1.02-.98,1.79-1.2-.99-2.45,1.87.53-2.15.8-3.23,1.34-5.39-.45-.37-1.3,6.73-1.79,5.03.68-2.04.92-4.44,1.45-6.6-.87.59-2.02,7.43-2.62,6.94.12-1.2,2.35-5.86,1.6-6.48-.15-.12-.68,2.03-.95,3.11,1.3-6.72,1.36-10.58-1-4.72.52-2.1,1.58-5,1.99-7.26,0,0-.01,0-.02.01-.29,1.11-.92,2.99-1.17,4.01.31-1.26.63-2.53.94-3.79-.17.17-.34.37-.51.58-.33.92-.63,1.85-.88,2.84.21-.84.41-1.68.62-2.52-.42.57-.86,1.23-1.3,1.96-1.25,2.87-2.73,5.55-3.13,7.17-3.48,13-6.85,26.09-9.98,39.16Z"/>
          <path class="cls-2" d="M189.46,305.53c.31-.1.38-.79.87.03,1.4,2.58,1.27,5.29,3.04,8.25.19,0,.39,0,.58,0,.96,2.45,2.18,5.19,4.1,7.93.99,1.18,2.08,2.28,3.37,3.35,1.29,1.09,2.72,2.01,4.2,2.78,2.97,1.54,6.15,2.37,9.24,2.65-.14-.22-.19-.38.42-.4,1.27.06,2.76.12,4.37.07,1.61-.06,3.34-.24,5.06-.61.5-.16.99-.31,1.47-.48.35-.23.39-.43.42-.56,1.5-.44,2.8-.93,4-1.42,3.73-2.06,7.08-4.97,9.54-8.68,1.22-1.85,2.2-3.9,2.85-6.06.6-2.11.96-4.16,1.05-6.23.22-4.13-.47-8.04-1.47-11.68-1.03-3.64-2.39-7.06-3.81-10.41-1.42-2.75-2.83-5.45-3.97-8.15-1.56-4.03-2.98-9.37-4.26-13.39-1.55,1.2-5.66-8.26-6.78-5.72-.85-2.68-2.13-6.69-2.69-6.73-1.69-.12-4.09-1.6-7.35-8.38-1.13-2.7-1.93-7.16-2.55-8.04-.99-1.38.15,3.94-.84,2.56,3.17,10.38,6.57,20.47,10.03,30.55,1.74,5.04,3.48,10.08,5.24,15.16.87,2.53,1.78,5.12,2.57,7.54.79,2.43,1.47,4.78,1.93,7.03.26.74.61,2.04.85,3.66.23,1.61.36,3.56.04,5.49-.04.24-.08.49-.13.74-.06.24-.12.48-.19.73l-.09.37-.11.31c-.06.21-.14.42-.24.62-.35.83-.86,1.68-1.55,2.5-1.37,1.64-3.5,3.11-5.93,3.96-2.42.85-5.09,1.08-7.29.6-1.1-.22-2.09-.6-2.93-1.1-.84-.5-1.51-1.06-2.28-1.9-1.45-1.61-2.63-3.75-3.58-5.82-.95-2.08-1.71-4.09-2.28-5.6l-.46-1.07c-2.57-6.54-5.94-14.38-8.84-19.62-1.44-2.36-2.98-4.72-4.5-7.09.21,1.3.37,2.52.49,3.59-1.03-2.62-2.06-5.23-2.78-6.1-3-5.24-2.57-1.75-2.86.86.12,1.74-1.51-.01-1.05,2.6-.68-1.74-1.03-2.61-1.71-4.36-.57,0,2.43,5.24,1.15,4.36-.5-1.74-1.56-3.49-2.24-5.23-.41.87,2.21,6.1,1.46,6.1-.53-.87-1.11-5.23-2.06-5.23-.19,0,.5,1.74.84,2.61-2.43-5.23-4.41-7.86-3.29-2.63-.67-1.7-1.31-4.23-2.15-5.97,0,0,0,.01,0,.02.34.9.8,2.51,1.13,3.34-.4-1.02-.8-2.04-1.2-3.06-.05.21-.09.43-.12.67.21.8.44,1.59.76,2.39-.27-.68-.53-1.35-.8-2.03-.06.61-.07,1.3-.05,2.03.46,2.61.64,5.23,1.16,6.53,3.92,10.65,7.96,21.29,12.21,31.8Z"/>
        </g>
        <g>
          <path class="cls-2" d="M20.7,330.37c.31.1.79-.53.68.59-.5,3.48-2.2,5.98-2.71,9.46.15.12.3.24.45.37-.65,1.96-1.32,3.99-2.02,6.1l15.55,3.3c.18-.62.37-1.29.56-1.96.92-5.24,1.78-10.46,2.59-15.66-.21.1-.4.13-.37-.4.27-2.18,1.02-5.12,1.66-8.2.06-.46.11-.92.17-1.38-.04-.37-.21-.5-.31-.57.28-1.39.57-2.62.84-3.76l.24-2.02.12-1.01.06-.48-.02-.1c-.04-.27-.08-.59-.1-.96-.05-.73-.08-1.66-.06-2.8.03-2.27.2-5.39.57-9.52.54.45,1.38,1.7,2.48,3.65.83.87,1.93,2.45,2.94,4.58.34.78.68,1.65,1.01,2.56.41,1.17.83,2.38,1.25,3.58.89,2.64,1.78,5.27,2.57,7.58l3.35-3.36c-.22-.08-.41-.15-.6-.22.09,2-11.67-1.3-10.02,1.28-2.28-.86-5.4-2.03-7.06-2.44l-4.84-1.18,4.69-2.73c.56-.33.89-.58.9-.74.06-1.75,1.66-4.45,9.35-8.94,3.07-1.62,8.19-3.2,9.18-3.99,1.55-1.25-4.55.83-3-.41-6.42,2.72-12.75,5.49-19.02,8.3l-19.01,8.51,19.6,7.13c5.37,1.95,10.73,3.87,16.09,5.77l17.05,6.04-6.32-16.8c-1.12-2.99-2.25-5.97-3.37-8.96-2.06-5.54-4.12-11.08-6.19-16.64-4.38-11.87-8.79-23.82-13.25-35.89-.39-.9-.92-2.21-1.64-4.01-.95,5.71-2.39,13.96-4.13,23.64-1.72,9.46-3.75,20.59-5.88,32.34-1.18,6.46-2.42,13.26-3.62,19.83-1.18,6.24-2.31,12.26-3.3,17.53l14.03,2.98c1.5-6.32,2.76-11.5,3.59-14.68.1-.45.2-.91.29-1.36,2-8.09,4.18-17.99,5.11-25.02.32-3.25.55-6.58.81-9.88-.64,1.41-1.26,2.72-1.84,3.84.8-3.24,1.6-6.48,1.57-7.8.85-7.09-.97-3.39-2.82-1.02-.98,1.79-1.2-.99-2.45,1.87.53-2.15.8-3.23,1.34-5.39-.45-.37-1.3,6.73-1.79,5.03.68-2.04.92-4.44,1.45-6.6-.87.59-2.02,7.43-2.62,6.94.12-1.2,2.35-5.86,1.6-6.48-.15-.12-.68,2.03-.95,3.11,1.3-6.72,1.36-10.58-1-4.72.52-2.1,1.58-5,1.99-7.26,0,0-.01,0-.02.01-.29,1.11-.92,2.99-1.17,4.01.31-1.26.63-2.53.94-3.79-.17.17-.34.37-.51.58-.33.92-.63,1.85-.88,2.84.21-.84.41-1.68.62-2.52-.42.57-.86,1.23-1.3,1.96-1.25,2.87-2.73,5.55-3.13,7.17-3.48,13-6.85,26.09-9.98,39.16Z"/>
          <path class="cls-2" d="M61.03,305.53c.31-.1.38-.79.87.03,1.4,2.58,1.27,5.29,3.04,8.25.19,0,.39,0,.58,0,.96,2.45,2.18,5.19,4.1,7.93.99,1.18,2.08,2.28,3.37,3.35,1.29,1.09,2.72,2.01,4.2,2.78,2.97,1.54,6.15,2.37,9.24,2.65-.14-.22-.19-.38.42-.4,1.27.06,2.76.12,4.37.07,1.61-.06,3.34-.24,5.06-.61.5-.16.99-.31,1.47-.48.35-.23.39-.43.42-.56,1.5-.44,2.8-.93,4-1.42,3.73-2.06,7.08-4.97,9.54-8.68,1.22-1.85,2.2-3.9,2.85-6.06.6-2.11.96-4.16,1.05-6.23.22-4.13-.47-8.04-1.47-11.68-1.03-3.64-2.39-7.06-3.81-10.41-1.42-2.75-2.83-5.45-3.97-8.15-1.56-4.03-2.98-9.37-4.26-13.39-1.55,1.2-5.66-8.26-6.78-5.72-.85-2.68-2.13-6.69-2.69-6.73-1.69-.12-4.09-1.6-7.35-8.38-1.13-2.7-1.93-7.16-2.55-8.04-.99-1.38.15,3.94-.84,2.56,3.17,10.38,6.57,20.47,10.03,30.55,1.74,5.04,3.48,10.08,5.24,15.16.87,2.53,1.78,5.12,2.57,7.54.79,2.43,1.47,4.78,1.93,7.03.26.74.61,2.04.85,3.66.23,1.61.36,3.56.04,5.49-.04.24-.08.49-.13.74-.06.24-.12.48-.19.73l-.09.37-.11.31c-.06.21-.14.42-.24.62-.35.83-.86,1.68-1.55,2.5-1.37,1.64-3.5,3.11-5.93,3.96-2.42.85-5.09,1.08-7.29.6-1.1-.22-2.09-.6-2.93-1.1-.84-.5-1.51-1.06-2.28-1.9-1.45-1.61-2.63-3.75-3.58-5.82-.95-2.08-1.71-4.09-2.28-5.6l-.46-1.07c-2.57-6.54-5.94-14.38-8.84-19.62-1.44-2.36-2.98-4.72-4.5-7.09.21,1.3.37,2.52.49,3.59-1.03-2.62-2.06-5.23-2.78-6.1-3-5.24-2.57-1.75-2.86.86.12,1.74-1.51-.01-1.05,2.6-.68-1.74-1.03-2.61-1.71-4.36-.57,0,2.43,5.24,1.15,4.36-.5-1.74-1.56-3.49-2.24-5.23-.41.87,2.21,6.1,1.46,6.1-.53-.87-1.11-5.23-2.06-5.23-.19,0,.5,1.74.84,2.61-2.43-5.23-4.41-7.86-3.29-2.63-.67-1.7-1.31-4.23-2.15-5.97,0,0,0,.01,0,.02.34.9.8,2.51,1.13,3.34-.4-1.02-.8-2.04-1.2-3.06-.05.21-.09.43-.12.67.21.8.44,1.59.76,2.39-.27-.68-.53-1.35-.8-2.03-.06.61-.07,1.3-.05,2.03.46,2.61.64,5.23,1.16,6.53,3.92,10.65,7.96,21.29,12.21,31.8Z"/>
        </g>
        <g>
          <path class="cls-2" d="M213.35,184.43c.31.1.79-.53.68.59-.5,3.48-2.2,5.98-2.71,9.46.15.12.3.24.45.37-.65,1.96-1.32,3.99-2.02,6.1l15.55,3.3c.18-.62.37-1.29.56-1.96.92-5.24,1.78-10.46,2.59-15.66-.21.1-.4.13-.37-.4.27-2.18,1.02-5.12,1.66-8.2.06-.46.11-.92.17-1.38-.04-.37-.21-.5-.31-.57.28-1.39.57-2.62.84-3.76l.24-2.02.12-1.01.06-.48-.02-.1c-.04-.27-.08-.59-.1-.96-.05-.73-.08-1.66-.06-2.8.03-2.27.2-5.39.57-9.52.54.45,1.38,1.7,2.48,3.65.83.87,1.93,2.45,2.94,4.58.34.78.68,1.65,1.01,2.56.41,1.17.83,2.38,1.25,3.58.89,2.64,1.78,5.27,2.57,7.58l3.35-3.36c-.22-.08-.41-.15-.6-.22.09,2-11.67-1.3-10.02,1.28-2.28-.86-5.4-2.03-7.06-2.44l-4.84-1.18,4.69-2.73c.56-.33.89-.58.9-.74.06-1.75,1.66-4.45,9.35-8.94,3.07-1.62,8.19-3.2,9.18-3.99,1.55-1.25-4.55.83-3-.41-6.42,2.72-12.75,5.49-19.02,8.3l-19.01,8.51,19.6,7.13c5.37,1.95,10.73,3.87,16.09,5.77l17.05,6.04-6.32-16.8c-1.12-2.99-2.25-5.97-3.37-8.96-2.06-5.54-4.12-11.08-6.19-16.64-4.38-11.87-8.79-23.82-13.25-35.89-.39-.9-.92-2.21-1.64-4.01-.95,5.71-2.39,13.96-4.13,23.64-1.72,9.46-3.75,20.59-5.88,32.34-1.18,6.46-2.42,13.26-3.62,19.83-1.18,6.24-2.31,12.26-3.3,17.53l14.03,2.98c1.5-6.32,2.76-11.5,3.59-14.68.1-.45.2-.91.29-1.36,2-8.09,4.18-17.99,5.11-25.02.32-3.25.55-6.58.81-9.88-.64,1.41-1.26,2.72-1.84,3.84.8-3.24,1.6-6.48,1.57-7.8.85-7.09-.97-3.39-2.82-1.02-.98,1.79-1.2-.99-2.45,1.87.53-2.15.8-3.23,1.34-5.39-.45-.37-1.3,6.73-1.79,5.03.68-2.04.92-4.44,1.45-6.6-.87.59-2.02,7.43-2.62,6.94.12-1.2,2.35-5.86,1.6-6.48-.15-.12-.68,2.03-.95,3.11,1.3-6.72,1.36-10.58-1-4.72.52-2.1,1.58-5,1.99-7.26,0,0-.01,0-.02.01-.29,1.11-.92,2.99-1.17,4.01.31-1.26.63-2.53.94-3.79-.17.17-.34.37-.51.58-.33.92-.63,1.85-.88,2.84.21-.84.41-1.68.62-2.52-.42.57-.86,1.23-1.3,1.96-1.25,2.87-2.73,5.55-3.13,7.17-3.48,13-6.85,26.09-9.98,39.16Z"/>
          <path class="cls-2" d="M253.67,159.59c.31-.1.38-.79.87.03,1.4,2.58,1.27,5.29,3.04,8.25.19,0,.39,0,.58,0,.96,2.45,2.18,5.19,4.1,7.93.99,1.18,2.08,2.28,3.37,3.35,1.29,1.09,2.72,2.01,4.2,2.78,2.97,1.54,6.15,2.37,9.24,2.65-.14-.22-.19-.38.42-.4,1.27.06,2.76.12,4.37.07,1.61-.06,3.34-.24,5.06-.61.5-.16.99-.31,1.47-.48.35-.23.39-.43.42-.56,1.5-.44,2.8-.93,4-1.42,3.73-2.06,7.08-4.97,9.54-8.68,1.22-1.85,2.2-3.9,2.85-6.06.6-2.11.96-4.16,1.05-6.23.22-4.13-.47-8.04-1.47-11.68-1.03-3.64-2.39-7.06-3.81-10.41-1.42-2.75-2.83-5.45-3.97-8.15-1.56-4.03-2.98-9.37-4.26-13.39-1.55,1.2-5.66-8.26-6.78-5.72-.85-2.68-2.13-6.69-2.69-6.73-1.69-.12-4.09-1.6-7.35-8.38-1.13-2.7-1.93-7.16-2.55-8.04-.99-1.38.15,3.94-.84,2.56,3.17,10.38,6.57,20.47,10.03,30.55,1.74,5.04,3.48,10.08,5.24,15.16.87,2.53,1.78,5.12,2.57,7.54.79,2.43,1.47,4.78,1.93,7.03.26.74.61,2.04.85,3.66.23,1.61.36,3.56.04,5.49-.04.24-.08.49-.13.74-.06.24-.12.48-.19.73l-.09.37-.11.31c-.06.21-.14.42-.24.62-.35.83-.86,1.68-1.55,2.5-1.37,1.64-3.5,3.11-5.93,3.96-2.42.85-5.09,1.08-7.29.6-1.1-.22-2.09-.6-2.93-1.1-.84-.5-1.51-1.06-2.28-1.9-1.45-1.61-2.63-3.75-3.58-5.82-.95-2.08-1.71-4.09-2.28-5.6l-.46-1.07c-2.57-6.54-5.94-14.38-8.84-19.62-1.44-2.36-2.98-4.72-4.5-7.09.21,1.3.37,2.52.49,3.59-1.03-2.62-2.06-5.23-2.78-6.1-3-5.24-2.57-1.75-2.86.86.12,1.74-1.51-.01-1.05,2.6-.68-1.74-1.03-2.61-1.71-4.36-.57,0,2.43,5.24,1.15,4.36-.5-1.74-1.56-3.49-2.24-5.23-.41.87,2.21,6.1,1.46,6.1-.53-.87-1.11-5.23-2.06-5.23-.19,0,.5,1.74.84,2.61-2.43-5.23-4.41-7.86-3.29-2.63-.67-1.7-1.31-4.23-2.15-5.97,0,0,0,.01,0,.02.34.9.8,2.51,1.13,3.34-.4-1.02-.8-2.04-1.2-3.06-.05.21-.09.43-.12.67.21.8.44,1.59.76,2.39-.27-.68-.53-1.35-.8-2.03-.06.61-.07,1.3-.05,2.03.46,2.61.64,5.23,1.16,6.53,3.92,10.65,7.96,21.29,12.21,31.8Z"/>
        </g>
        <g>
          <path class="cls-2" d="M84.92,184.43c.31.1.79-.53.68.59-.5,3.48-2.2,5.98-2.71,9.46.15.12.3.24.45.37-.65,1.96-1.32,3.99-2.02,6.1l15.55,3.3c.18-.62.37-1.29.56-1.96.92-5.24,1.78-10.46,2.59-15.66-.21.1-.4.13-.37-.4.27-2.18,1.02-5.12,1.66-8.2.06-.46.11-.92.17-1.38-.04-.37-.21-.5-.31-.57.28-1.39.57-2.62.84-3.76l.24-2.02.12-1.01.06-.48-.02-.1c-.04-.27-.08-.59-.1-.96-.05-.73-.08-1.66-.06-2.8.03-2.27.2-5.39.57-9.52.54.45,1.38,1.7,2.48,3.65.83.87,1.93,2.45,2.94,4.58.34.78.68,1.65,1.01,2.56.41,1.17.83,2.38,1.25,3.58.89,2.64,1.78,5.27,2.57,7.58l3.35-3.36c-.22-.08-.41-.15-.6-.22.09,2-11.67-1.3-10.02,1.28-2.28-.86-5.4-2.03-7.06-2.44l-4.84-1.18,4.69-2.73c.56-.33.89-.58.9-.74.06-1.75,1.66-4.45,9.35-8.94,3.07-1.62,8.19-3.2,9.18-3.99,1.55-1.25-4.55.83-3-.41-6.42,2.72-12.75,5.49-19.02,8.3l-19.01,8.51,19.6,7.13c5.37,1.95,10.73,3.87,16.09,5.77l17.05,6.04-6.32-16.8c-1.12-2.99-2.25-5.97-3.37-8.96-2.06-5.54-4.12-11.08-6.19-16.64-4.38-11.87-8.79-23.82-13.25-35.89-.39-.9-.92-2.21-1.64-4.01-.95,5.71-2.39,13.96-4.13,23.64-1.72,9.46-3.75,20.59-5.88,32.34-1.18,6.46-2.42,13.26-3.62,19.83-1.18,6.24-2.31,12.26-3.3,17.53l14.03,2.98c1.5-6.32,2.76-11.5,3.59-14.68.1-.45.2-.91.29-1.36,2-8.09,4.18-17.99,5.11-25.02.32-3.25.55-6.58.81-9.88-.64,1.41-1.26,2.72-1.84,3.84.8-3.24,1.6-6.48,1.57-7.8.85-7.09-.97-3.39-2.82-1.02-.98,1.79-1.2-.99-2.45,1.87.53-2.15.8-3.23,1.34-5.39-.45-.37-1.3,6.73-1.79,5.03.68-2.04.92-4.44,1.45-6.6-.87.59-2.02,7.43-2.62,6.94.12-1.2,2.35-5.86,1.6-6.48-.15-.12-.68,2.03-.95,3.11,1.3-6.72,1.36-10.58-1-4.72.52-2.1,1.58-5,1.99-7.26,0,0-.01,0-.02.01-.29,1.11-.92,2.99-1.17,4.01.31-1.26.63-2.53.94-3.79-.17.17-.34.37-.51.58-.33.92-.63,1.85-.88,2.84.21-.84.41-1.68.62-2.52-.42.57-.86,1.23-1.3,1.96-1.25,2.87-2.73,5.55-3.13,7.17-3.48,13-6.85,26.09-9.98,39.16Z"/>
          <path class="cls-2" d="M125.24,159.59c.31-.1.38-.79.87.03,1.4,2.58,1.27,5.29,3.04,8.25.19,0,.39,0,.58,0,.96,2.45,2.18,5.19,4.1,7.93.99,1.18,2.08,2.28,3.37,3.35,1.29,1.09,2.72,2.01,4.2,2.78,2.97,1.54,6.15,2.37,9.24,2.65-.14-.22-.19-.38.42-.4,1.27.06,2.76.12,4.37.07,1.61-.06,3.34-.24,5.06-.61.5-.16.99-.31,1.47-.48.35-.23.39-.43.42-.56,1.5-.44,2.8-.93,4-1.42,3.73-2.06,7.08-4.97,9.54-8.68,1.22-1.85,2.2-3.9,2.85-6.06.6-2.11.96-4.16,1.05-6.23.22-4.13-.47-8.04-1.47-11.68-1.03-3.64-2.39-7.06-3.81-10.41-1.42-2.75-2.83-5.45-3.97-8.15-1.56-4.03-2.98-9.37-4.26-13.39-1.55,1.2-5.66-8.26-6.78-5.72-.85-2.68-2.13-6.69-2.69-6.73-1.69-.12-4.09-1.6-7.35-8.38-1.13-2.7-1.93-7.16-2.55-8.04-.99-1.38.15,3.94-.84,2.56,3.17,10.38,6.57,20.47,10.03,30.55,1.74,5.04,3.48,10.08,5.24,15.16.87,2.53,1.78,5.12,2.57,7.54.79,2.43,1.47,4.78,1.93,7.03.26.74.61,2.04.85,3.66.23,1.61.36,3.56.04,5.49-.04.24-.08.49-.13.74-.06.24-.12.48-.19.73l-.09.37-.11.31c-.06.21-.14.42-.24.62-.35.83-.86,1.68-1.55,2.5-1.37,1.64-3.5,3.11-5.93,3.96-2.42.85-5.09,1.08-7.29.6-1.1-.22-2.09-.6-2.93-1.1-.84-.5-1.51-1.06-2.28-1.9-1.45-1.61-2.63-3.75-3.58-5.82-.95-2.08-1.71-4.09-2.28-5.6l-.46-1.07c-2.57-6.54-5.94-14.38-8.84-19.62-1.44-2.36-2.98-4.72-4.5-7.09.21,1.3.37,2.52.49,3.59-1.03-2.62-2.06-5.23-2.78-6.1-3-5.24-2.57-1.75-2.86.86.12,1.74-1.51-.01-1.05,2.6-.68-1.74-1.03-2.61-1.71-4.36-.57,0,2.43,5.24,1.15,4.36-.5-1.74-1.56-3.49-2.24-5.23-.41.87,2.21,6.1,1.46,6.1-.53-.87-1.11-5.23-2.06-5.23-.19,0,.5,1.74.84,2.61-2.43-5.23-4.41-7.86-3.29-2.63-.67-1.7-1.31-4.23-2.15-5.97,0,0,0,.01,0,.02.34.9.8,2.51,1.13,3.34-.4-1.02-.8-2.04-1.2-3.06-.05.21-.09.43-.12.67.21.8.44,1.59.76,2.39-.27-.68-.53-1.35-.8-2.03-.06.61-.07,1.3-.05,2.03.46,2.61.64,5.23,1.16,6.53,3.92,10.65,7.96,21.29,12.21,31.8Z"/>
        </g>
        <g>
          <path class="cls-2" d="M-43.52,184.43c.31.1.79-.53.68.59-.5,3.48-2.2,5.98-2.71,9.46.15.12.3.24.45.37-.65,1.96-1.32,3.99-2.02,6.1l15.55,3.3c.18-.62.37-1.29.56-1.96.92-5.24,1.78-10.46,2.59-15.66-.21.1-.4.13-.37-.4.27-2.18,1.02-5.12,1.66-8.2.06-.46.11-.92.17-1.38-.04-.37-.21-.5-.31-.57.28-1.39.57-2.62.84-3.76l.24-2.02.12-1.01.06-.48-.02-.1c-.04-.27-.08-.59-.1-.96-.05-.73-.08-1.66-.06-2.8.03-2.27.2-5.39.57-9.52.54.45,1.38,1.7,2.48,3.65.83.87,1.93,2.45,2.94,4.58.34.78.68,1.65,1.01,2.56.41,1.17.83,2.38,1.25,3.58.89,2.64,1.78,5.27,2.57,7.58l3.35-3.36c-.22-.08-.41-.15-.6-.22.09,2-11.67-1.3-10.02,1.28-2.28-.86-5.4-2.03-7.06-2.44l-4.84-1.18,4.69-2.73c.56-.33.89-.58.9-.74.06-1.75,1.66-4.45,9.35-8.94,3.07-1.62,8.19-3.2,9.18-3.99,1.55-1.25-4.55.83-3-.41-6.42,2.72-12.75,5.49-19.02,8.3l-19.01,8.51,19.6,7.13c5.37,1.95,10.73,3.87,16.09,5.77l17.05,6.04-6.32-16.8c-1.12-2.99-2.25-5.97-3.37-8.96-2.06-5.54-4.12-11.08-6.19-16.64-4.38-11.87-8.79-23.82-13.25-35.89-.39-.9-.92-2.21-1.64-4.01-.95,5.71-2.39,13.96-4.13,23.64-1.72,9.46-3.75,20.59-5.88,32.34-1.18,6.46-2.42,13.26-3.62,19.83-1.18,6.24-2.31,12.26-3.3,17.53l14.03,2.98c1.5-6.32,2.76-11.5,3.59-14.68.1-.45.2-.91.29-1.36,2-8.09,4.18-17.99,5.11-25.02.32-3.25.55-6.58.81-9.88-.64,1.41-1.26,2.72-1.84,3.84.8-3.24,1.6-6.48,1.57-7.8.85-7.09-.97-3.39-2.82-1.02-.98,1.79-1.2-.99-2.45,1.87.53-2.15.8-3.23,1.34-5.39-.45-.37-1.3,6.73-1.79,5.03.68-2.04.92-4.44,1.45-6.6-.87.59-2.02,7.43-2.62,6.94.12-1.2,2.35-5.86,1.6-6.48-.15-.12-.68,2.03-.95,3.11,1.3-6.72,1.36-10.58-1-4.72.52-2.1,1.58-5,1.99-7.26,0,0-.01,0-.02.01-.29,1.11-.92,2.99-1.17,4.01.31-1.26.63-2.53.94-3.79-.17.17-.34.37-.51.58-.33.92-.63,1.85-.88,2.84.21-.84.41-1.68.62-2.52-.42.57-.86,1.23-1.3,1.96-1.25,2.87-2.73,5.55-3.13,7.17-3.48,13-6.85,26.09-9.98,39.16Z"/>
          <path class="cls-2" d="M-3.19,159.59c.31-.1.38-.79.87.03,1.4,2.58,1.27,5.29,3.04,8.25.19,0,.39,0,.58,0,.96,2.45,2.18,5.19,4.1,7.93.99,1.18,2.08,2.28,3.37,3.35,1.29,1.09,2.72,2.01,4.2,2.78,2.97,1.54,6.15,2.37,9.24,2.65-.14-.22-.19-.38.42-.4,1.27.06,2.76.12,4.37.07,1.61-.06,3.34-.24,5.06-.61.5-.16.99-.31,1.47-.48.35-.23.39-.43.42-.56,1.5-.44,2.8-.93,4-1.42,3.73-2.06,7.08-4.97,9.54-8.68,1.22-1.85,2.2-3.9,2.85-6.06.6-2.11.96-4.16,1.05-6.23.22-4.13-.47-8.04-1.47-11.68-1.03-3.64-2.39-7.06-3.81-10.41-1.42-2.75-2.83-5.45-3.97-8.15-1.56-4.03-2.98-9.37-4.26-13.39-1.55,1.2-5.66-8.26-6.78-5.72-.85-2.68-2.13-6.69-2.69-6.73-1.69-.12-4.09-1.6-7.35-8.38-1.13-2.7-1.93-7.16-2.55-8.04-.99-1.38.15,3.94-.84,2.56,3.17,10.38,6.57,20.47,10.03,30.55,1.74,5.04,3.48,10.08,5.24,15.16.87,2.53,1.78,5.12,2.57,7.54.79,2.43,1.47,4.78,1.93,7.03.26.74.61,2.04.85,3.66.23,1.61.36,3.56.04,5.49-.04.24-.08.49-.13.74-.06.24-.12.48-.19.73l-.09.37-.11.31c-.06.21-.14.42-.24.62-.35.83-.86,1.68-1.55,2.5-1.37,1.64-3.5,3.11-5.93,3.96-2.42.85-5.09,1.08-7.29.6-1.1-.22-2.09-.6-2.93-1.1-.84-.5-1.51-1.06-2.28-1.9-1.45-1.61-2.63-3.75-3.58-5.82-.95-2.08-1.71-4.09-2.28-5.6l-.46-1.07c-2.57-6.54-5.94-14.38-8.84-19.62-1.44-2.36-2.98-4.72-4.5-7.09.21,1.3.37,2.52.49,3.59-1.03-2.62-2.06-5.23-2.78-6.1-3-5.24-2.57-1.75-2.86.86.12,1.74-1.51-.01-1.05,2.6-.68-1.74-1.03-2.61-1.71-4.36-.57,0,2.43,5.24,1.15,4.36-.5-1.74-1.56-3.49-2.24-5.23-.41.87,2.21,6.1,1.46,6.1-.53-.87-1.11-5.23-2.06-5.23-.19,0,.5,1.74.84,2.61-2.43-5.23-4.41-7.86-3.29-2.63-.67-1.7-1.31-4.23-2.15-5.97,0,0,0,.01,0,.02.34.9.8,2.51,1.13,3.34-.4-1.02-.8-2.04-1.2-3.06-.05.21-.09.43-.12.67.21.8.44,1.59.76,2.39-.27-.68-.53-1.35-.8-2.03-.06.61-.07,1.3-.05,2.03.46,2.61.64,5.23,1.16,6.53,3.92,10.65,7.96,21.29,12.21,31.8Z"/>
        </g>
        <g>
          <path class="cls-2" d="M149.13,38.49c.31.1.79-.53.68.59-.5,3.48-2.2,5.98-2.71,9.46.15.12.3.24.45.37-.65,1.96-1.32,3.99-2.02,6.1l15.55,3.3c.18-.62.37-1.29.56-1.96.92-5.24,1.78-10.46,2.59-15.66-.21.1-.4.13-.37-.4.27-2.18,1.02-5.12,1.66-8.2.06-.46.11-.92.17-1.38-.04-.37-.21-.5-.31-.57.28-1.39.57-2.62.84-3.76l.24-2.02.12-1.01.06-.48-.02-.1c-.04-.27-.08-.59-.1-.96-.05-.73-.08-1.66-.06-2.8.03-2.27.2-5.39.57-9.52.54.45,1.38,1.7,2.48,3.65.83.87,1.93,2.45,2.94,4.58.34.78.68,1.65,1.01,2.56.41,1.17.83,2.38,1.25,3.58.89,2.64,1.78,5.27,2.57,7.58l3.35-3.36c-.22-.08-.41-.15-.6-.22.09,2-11.67-1.3-10.02,1.28-2.28-.86-5.4-2.03-7.06-2.44l-4.84-1.18,4.69-2.73c.56-.33.89-.58.9-.74.06-1.75,1.66-4.45,9.35-8.94,3.07-1.62,8.19-3.2,9.18-3.99,1.55-1.25-4.55.83-3-.41-6.42,2.72-12.75,5.49-19.02,8.3l-19.01,8.51,19.6,7.13c5.37,1.95,10.73,3.87,16.09,5.77l17.05,6.04-6.32-16.8c-1.12-2.99-2.25-5.97-3.37-8.96-2.06-5.54-4.12-11.08-6.19-16.64-4.38-11.87-8.79-23.82-13.25-35.89-.39-.9-.92-2.21-1.64-4.01-.95,5.71-2.39,13.96-4.13,23.64-1.72,9.46-3.75,20.59-5.88,32.34-1.18,6.46-2.42,13.26-3.62,19.83-1.18,6.24-2.31,12.26-3.3,17.53l14.03,2.98c1.5-6.32,2.76-11.5,3.59-14.68.1-.45.2-.91.29-1.36,2-8.09,4.18-17.99,5.11-25.02.32-3.25.55-6.58.81-9.88-.64,1.41-1.26,2.72-1.84,3.84.8-3.24,1.6-6.48,1.57-7.8.85-7.09-.97-3.39-2.82-1.02-.98,1.79-1.2-.99-2.45,1.87.53-2.15.8-3.23,1.34-5.39-.45-.37-1.3,6.73-1.79,5.03.68-2.04.92-4.44,1.45-6.6-.87.59-2.02,7.43-2.62,6.94.12-1.2,2.35-5.86,1.6-6.48-.15-.12-.68,2.03-.95,3.11,1.3-6.72,1.36-10.58-1-4.72.52-2.1,1.58-5,1.99-7.26,0,0-.01,0-.02.01-.29,1.11-.92,2.99-1.17,4.01.31-1.26.63-2.53.94-3.79-.17.17-.34.37-.51.58-.33.92-.63,1.85-.88,2.84.21-.84.41-1.68.62-2.52-.42.57-.86,1.23-1.3,1.96-1.25,2.87-2.73,5.55-3.13,7.17-3.48,13-6.85,26.09-9.98,39.16Z"/>
          <path class="cls-2" d="M189.46,13.65c.31-.1.38-.79.87.03,1.4,2.58,1.27,5.29,3.04,8.25.19,0,.39,0,.58,0,.96,2.45,2.18,5.19,4.1,7.93.99,1.18,2.08,2.28,3.37,3.35,1.29,1.09,2.72,2.01,4.2,2.78,2.97,1.54,6.15,2.37,9.24,2.65-.14-.22-.19-.38.42-.4,1.27.06,2.76.12,4.37.07,1.61-.06,3.34-.24,5.06-.61.5-.16.99-.31,1.47-.48.35-.23.39-.43.42-.56,1.5-.44,2.8-.93,4-1.42,3.73-2.06,7.08-4.97,9.54-8.68,1.22-1.85,2.2-3.9,2.85-6.06.6-2.11.96-4.16,1.05-6.23.22-4.13-.47-8.04-1.47-11.68-1.03-3.64-2.39-7.06-3.81-10.41-1.42-2.75-2.83-5.45-3.97-8.15-1.56-4.03-2.98-9.37-4.26-13.39-1.55,1.2-5.66-8.26-6.78-5.72-.85-2.68-2.13-6.69-2.69-6.73-1.69-.12-4.09-1.6-7.35-8.38-1.13-2.7-1.93-7.16-2.55-8.04-.99-1.38.15,3.94-.84,2.56,3.17,10.38,6.57,20.47,10.03,30.55,1.74,5.04,3.48,10.08,5.24,15.16.87,2.53,1.78,5.12,2.57,7.54.79,2.43,1.47,4.78,1.93,7.03.26.74.61,2.04.85,3.66.23,1.61.36,3.56.04,5.49-.04.24-.08.49-.13.74-.06.24-.12.48-.19.73l-.09.37-.11.31c-.06.21-.14.42-.24.62-.35.83-.86,1.68-1.55,2.5-1.37,1.64-3.5,3.11-5.93,3.96-2.42.85-5.09,1.08-7.29.6-1.1-.22-2.09-.6-2.93-1.1-.84-.5-1.51-1.06-2.28-1.9-1.45-1.61-2.63-3.75-3.58-5.82-.95-2.08-1.71-4.09-2.28-5.6l-.46-1.07c-2.57-6.54-5.94-14.38-8.84-19.62-1.44-2.36-2.98-4.72-4.5-7.09.21,1.3.37,2.52.49,3.59-1.03-2.62-2.06-5.23-2.78-6.1-3-5.24-2.57-1.75-2.86.86.12,1.74-1.51-.01-1.05,2.6-.68-1.74-1.03-2.61-1.71-4.36-.57,0,2.43,5.24,1.15,4.36-.5-1.74-1.56-3.49-2.24-5.23-.41.87,2.21,6.1,1.46,6.1-.53-.87-1.11-5.23-2.06-5.23-.19,0,.5,1.74.84,2.61-2.43-5.23-4.41-7.86-3.29-2.63-.67-1.7-1.31-4.23-2.15-5.97,0,0,0,.01,0,.02.34.9.8,2.51,1.13,3.34-.4-1.02-.8-2.04-1.2-3.06-.05.21-.09.43-.12.67.21.8.44,1.59.76,2.39-.27-.68-.53-1.35-.8-2.03-.06.61-.07,1.3-.05,2.03.46,2.61.64,5.23,1.16,6.53,3.92,10.65,7.96,21.29,12.21,31.8Z"/>
        </g>
        <g>
          <path class="cls-2" d="M20.7,38.49c.31.1.79-.53.68.59-.5,3.48-2.2,5.98-2.71,9.46.15.12.3.24.45.37-.65,1.96-1.32,3.99-2.02,6.1l15.55,3.3c.18-.62.37-1.29.56-1.96.92-5.24,1.78-10.46,2.59-15.66-.21.1-.4.13-.37-.4.27-2.18,1.02-5.12,1.66-8.2.06-.46.11-.92.17-1.38-.04-.37-.21-.5-.31-.57.28-1.39.57-2.62.84-3.76l.24-2.02.12-1.01.06-.48-.02-.1c-.04-.27-.08-.59-.1-.96-.05-.73-.08-1.66-.06-2.8.03-2.27.2-5.39.57-9.52.54.45,1.38,1.7,2.48,3.65.83.87,1.93,2.45,2.94,4.58.34.78.68,1.65,1.01,2.56.41,1.17.83,2.38,1.25,3.58.89,2.64,1.78,5.27,2.57,7.58l3.35-3.36c-.22-.08-.41-.15-.6-.22.09,2-11.67-1.3-10.02,1.28-2.28-.86-5.4-2.03-7.06-2.44l-4.84-1.18,4.69-2.73c.56-.33.89-.58.9-.74.06-1.75,1.66-4.45,9.35-8.94,3.07-1.62,8.19-3.2,9.18-3.99,1.55-1.25-4.55.83-3-.41-6.42,2.72-12.75,5.49-19.02,8.3l-19.01,8.51,19.6,7.13c5.37,1.95,10.73,3.87,16.09,5.77l17.05,6.04-6.32-16.8c-1.12-2.99-2.25-5.97-3.37-8.96-2.06-5.54-4.12-11.08-6.19-16.64-4.38-11.87-8.79-23.82-13.25-35.89-.39-.9-.92-2.21-1.64-4.01-.95,5.71-2.39,13.96-4.13,23.64-1.72,9.46-3.75,20.59-5.88,32.34-1.18,6.46-2.42,13.26-3.62,19.83-1.18,6.24-2.31,12.26-3.3,17.53l14.03,2.98c1.5-6.32,2.76-11.5,3.59-14.68.1-.45.2-.91.29-1.36,2-8.09,4.18-17.99,5.11-25.02.32-3.25.55-6.58.81-9.88-.64,1.41-1.26,2.72-1.84,3.84.8-3.24,1.6-6.48,1.57-7.8.85-7.09-.97-3.39-2.82-1.02-.98,1.79-1.2-.99-2.45,1.87.53-2.15.8-3.23,1.34-5.39-.45-.37-1.3,6.73-1.79,5.03.68-2.04.92-4.44,1.45-6.6-.87.59-2.02,7.43-2.62,6.94.12-1.2,2.35-5.86,1.6-6.48-.15-.12-.68,2.03-.95,3.11,1.3-6.72,1.36-10.58-1-4.72.52-2.1,1.58-5,1.99-7.26,0,0-.01,0-.02.01-.29,1.11-.92,2.99-1.17,4.01.31-1.26.63-2.53.94-3.79-.17.17-.34.37-.51.58-.33.92-.63,1.85-.88,2.84.21-.84.41-1.68.62-2.52-.42.57-.86,1.23-1.3,1.96-1.25,2.87-2.73,5.55-3.13,7.17-3.48,13-6.85,26.09-9.98,39.16Z"/>
          <path class="cls-2" d="M61.03,13.65c.31-.1.38-.79.87.03,1.4,2.58,1.27,5.29,3.04,8.25.19,0,.39,0,.58,0,.96,2.45,2.18,5.19,4.1,7.93.99,1.18,2.08,2.28,3.37,3.35,1.29,1.09,2.72,2.01,4.2,2.78,2.97,1.54,6.15,2.37,9.24,2.65-.14-.22-.19-.38.42-.4,1.27.06,2.76.12,4.37.07,1.61-.06,3.34-.24,5.06-.61.5-.16.99-.31,1.47-.48.35-.23.39-.43.42-.56,1.5-.44,2.8-.93,4-1.42,3.73-2.06,7.08-4.97,9.54-8.68,1.22-1.85,2.2-3.9,2.85-6.06.6-2.11.96-4.16,1.05-6.23.22-4.13-.47-8.04-1.47-11.68-1.03-3.64-2.39-7.06-3.81-10.41-1.42-2.75-2.83-5.45-3.97-8.15-1.56-4.03-2.98-9.37-4.26-13.39-1.55,1.2-5.66-8.26-6.78-5.72-.85-2.68-2.13-6.69-2.69-6.73-1.69-.12-4.09-1.6-7.35-8.38-1.13-2.7-1.93-7.16-2.55-8.04-.99-1.38.15,3.94-.84,2.56,3.17,10.38,6.57,20.47,10.03,30.55,1.74,5.04,3.48,10.08,5.24,15.16.87,2.53,1.78,5.12,2.57,7.54.79,2.43,1.47,4.78,1.93,7.03.26.74.61,2.04.85,3.66.23,1.61.36,3.56.04,5.49-.04.24-.08.49-.13.74-.06.24-.12.48-.19.73l-.09.37-.11.31c-.06.21-.14.42-.24.62-.35.83-.86,1.68-1.55,2.5-1.37,1.64-3.5,3.11-5.93,3.96-2.42.85-5.09,1.08-7.29.6-1.1-.22-2.09-.6-2.93-1.1-.84-.5-1.51-1.06-2.28-1.9-1.45-1.61-2.63-3.75-3.58-5.82-.95-2.08-1.71-4.09-2.28-5.6l-.46-1.07c-2.57-6.54-5.94-14.38-8.84-19.62-1.44-2.36-2.98-4.72-4.5-7.09.21,1.3.37,2.52.49,3.59-1.03-2.62-2.06-5.23-2.78-6.1-3-5.24-2.57-1.75-2.86.86.12,1.74-1.51-.01-1.05,2.6-.68-1.74-1.03-2.61-1.71-4.36-.57,0,2.43,5.24,1.15,4.36-.5-1.74-1.56-3.49-2.24-5.23-.41.87,2.21,6.1,1.46,6.1-.53-.87-1.11-5.23-2.06-5.23-.19,0,.5,1.74.84,2.61-2.43-5.23-4.41-7.86-3.29-2.63-.67-1.7-1.31-4.23-2.15-5.97,0,0,0,.01,0,.02.34.9.8,2.51,1.13,3.34-.4-1.02-.8-2.04-1.2-3.06-.05.21-.09.43-.12.67.21.8.44,1.59.76,2.39-.27-.68-.53-1.35-.8-2.03-.06.61-.07,1.3-.05,2.03.46,2.61.64,5.23,1.16,6.53,3.92,10.65,7.96,21.29,12.21,31.8Z"/>
        </g>
      </g>
    </pattern>
  </defs>
  <rect class="cls-3" width="612" height="792"/>
</svg>