<?xml version="1.0" encoding="UTF-8"?>
<svg id="Layer_1" data-name="Layer 1" xmlns="http://www.w3.org/2000/svg" xmlns:xlink="http://www.w3.org/1999/xlink" viewBox="0 0 612 792">
  <defs>
    <style>
      .cls-1 {
        fill: #646465;
      }

      .cls-1, .cls-2, .cls-3, .cls-4, .cls-5, .cls-6, .cls-7, .cls-8 {
        stroke-width: 0px;
      }

      .cls-2 {
        fill: #666769;
      }

      .cls-3 {
        fill: none;
      }

      .cls-4 {
        fill: #605f61;
      }

      .cls-5 {
        fill: #5d5c5d;
      }

      .cls-6 {
        fill: #59585a;
      }

      .cls-7 {
        fill: #6d6e70;
      }

      .cls-9 {
        fill: #fff;
        stroke: #231f20;
      }

      .cls-9, .cls-10 {
        stroke-miterlimit: 10;
      }

      .cls-10 {
        fill: url(#New_Pattern_2);
        stroke: #414042;
      }

      .cls-11 {
        opacity: .99;
      }

      .cls-12 {
        opacity: .97;
      }

      .cls-13 {
        opacity: .96;
      }

      .cls-14 {
        opacity: .98;
      }

      .cls-15 {
        opacity: .97;
      }

      .cls-16 {
        opacity: .99;
      }

      .cls-8 {
        fill: #6a6b6c;
      }
    </style>
    <pattern id="New_Pattern_2" data-name="New Pattern 2" x="0" y="0" width="270" height="336.87" patternTransform="translate(-632)" patternUnits="userSpaceOnUse" viewBox="0 0 270 336.87">
      <g>
        <rect class="cls-3" width="270" height="336.87"/>
        <g>
          <path class="cls-6" d="M223.5,274.45c-.28-.29-1.01-.09-.47-.96,1.83-2.59,4.62-3.42,6.5-5.96l-.31-.62c1.89-1.55,3.88-3.14,5.96-4.7,3.33-3.38,6.56-6.85,9.9-10.18-.25-.09-.45-.21-.16-.59,1.32-1.46,3.46-3.15,5.59-5,.29-.3.57-.61.86-.9.15-.32.06-.54,0-.68.97-.82,1.86-1.53,2.7-2.17,9.54-10.1,19.57-20.15,31.16-30.36,2.31-2.35,4.63-4.72,7.05-6.75,1.82-1.47,4.08-2.85,6.32-4.24,2.25-1.37,4.48-2.74,6.42-3.92-1.85-1.57,7.01-8.4,3.91-9.22,2.6-1.61,6.63-3.83,6.5-4.52-.19-1.02-.06-2.32.94-4.01,1.01-1.67,2.83-3.82,6.17-6.28,2.7-1.79,7.44-3.45,8.25-4.34,1.28-1.41-4.32.79-3.05-.62-2.68,1.37-5.34,2.75-7.98,4.15-2.63,1.41-5.19,2.93-7.77,4.41l-3.85,2.24c-1.27.76-2.52,1.56-3.77,2.35l-7.5,4.75c-9.85,6.57-19.5,13.45-29.15,20.77-1.53,1.4-5.3,4.73-10.38,8.92-2.49,2.16-5.28,4.57-8.23,7.12-1.49,1.26-2.98,2.61-4.49,3.98-1.52,1.37-3.06,2.75-4.61,4.15-6.16,5.62-12.34,11.5-17.54,16.67-2.65,2.54-4.97,4.97-7.01,7.04-2.05,2.05-3.76,3.77-5.02,5.03l-.85.98c-2.66,2.84-5.6,5.99-8.23,9.2-2.61,3.24-5.04,6.43-6.84,9.21-1.49,2.68-2.92,5.47-4.34,8.22,1.19-.86,2.31-1.63,3.32-2.27-1.99,2.36-3.99,4.71-4.39,5.9-3.23,5.8-.04,3.56,2.71,2.56,1.65-.99.95,1.56,3.27-.18-1.32,1.53-1.91,2.36-3.19,3.93.19.29,1.07-.99,1.91-2.13.83-1.14,1.68-2.09,1.64-1.22-1.43,1.35-2.42,3.35-3.69,4.92,1.12-.02,4.54-5.33,5.06-4.51-.56.94-4.42,3.73-3.81,4.7.13.19,1.38-1.38,2.01-2.17-3.53,5.12-4.78,8.44-.4,4.7-1.22,1.53-3.28,3.44-4.42,5.16,0,0,.02,0,.02,0,.66-.8,1.93-2.07,2.52-2.81-.73.92-1.47,1.83-2.2,2.75.23-.05.48-.13.74-.21.64-.61,1.27-1.24,1.84-1.96-.48.61-.97,1.21-1.46,1.82.64-.25,1.32-.57,2.02-.96,2.25-1.77,4.67-3.22,5.6-4.39,7.9-9.1,15.95-18.1,24.21-26.81Z"/>
          <g class="cls-11">
            <path class="cls-5" d="M242.28,294.72c-.27-.3-.85-.3-.51-.89,1.23-1.75,3.42-1.86,4.68-3.57l-.33-.58c1.38-.89,2.85-1.78,4.35-2.67,2.32-2.15,4.55-4.38,6.85-6.53-.22-.13-.39-.27-.2-.54.89-.97,2.43-1.96,3.92-3.1.19-.2.39-.4.58-.6.08-.24-.02-.45-.08-.59.68-.51,1.31-.93,1.91-1.31,6.43-6.73,13.17-13.51,20.97-20.38,1.51-1.67,3.03-3.34,4.67-4.71,2.51-1.88,6.17-3.52,8.82-5.01-1.58-1.76,4.39-6.41,1.96-7.72,1.81-.99,4.59-2.35,4.43-3.01-.48-1.93-.17-4.74,4.29-8.3,1.84-1.22,5.2-1.97,5.72-2.67.82-1.1-3.14.01-2.33-1.09-7.52,3.23-14.56,7.1-21.47,11.19-6.86,4.18-13.57,8.61-20.36,13.24-1.03.97-3.66,3.15-7.2,5.87-1.75,1.39-3.7,2.95-5.77,4.6-2.09,1.63-4.21,3.45-6.41,5.23-4.35,3.61-8.73,7.37-12.45,10.67-1.89,1.62-3.55,3.18-5.02,4.48-1.46,1.32-2.7,2.39-3.61,3.18l-.61.63c-1.92,1.8-4.03,3.82-5.91,5.92-1.86,2.12-3.58,4.23-4.8,6.14-.99,1.87-1.91,3.84-2.84,5.78.93-.45,1.81-.84,2.6-1.14-1.45,1.5-2.91,2.99-3.13,3.87-2.18,3.99.34,2.85,2.62,2.64,1.32-.44,1,1.47,2.8.55-.95.97-1.39,1.49-2.32,2.49.38.54,2.52-3.36,2.7-1.93-1.07.79-1.72,2.17-2.65,3.16.97.23,3.34-3.3,3.87-2.55-.36.65-3.41,2.05-2.77,2.96.13.18,1.04-.81,1.5-1.31-2.5,3.35-3.2,5.73.17,3.68-.88.96-2.45,2.05-3.25,3.19,0,0,.01,0,.02,0,.48-.5,1.44-1.24,1.87-1.71l-1.6,1.73c.2,0,.4,0,.62-.01.49-.35.96-.72,1.37-1.17l-1.06,1.15c.53-.06,1.08-.17,1.64-.33,1.75-.93,3.68-1.57,4.35-2.3,5.76-5.61,11.55-11.19,17.39-16.65Z"/>
          </g>
          <g class="cls-16">
            <path class="cls-4" d="M260.09,315.66c-.22-.34-.63-.55-.46-.89.66-.94,2.14-.27,2.81-1.18l-.3-.59c.85-.22,1.75-.41,2.66-.61,1.32-.93,2.57-1.94,3.84-2.94-.16-.18-.29-.36-.2-.52.48-.49,1.39-.77,2.25-1.21l.31-.31c.02-.18-.07-.39-.12-.52.39-.2.75-.33,1.1-.45,3.45-3.45,7.01-7.06,11.17-10.67.76-1.02,1.54-2.03,2.41-2.73,1.36-.91,3.44-1.31,4.9-1.87-1.13-2.03,2.05-4.54.47-6.41,1.01-.37,2.56-.87,2.4-1.51-.46-1.91-.5-4.34,1.87-6.45,1-.65,2.94-.46,3.19-.97.4-.81-1.86-.8-1.47-1.61-4.21,1.08-8.18,2.67-12.07,4.41-3.88,1.78-7.67,3.73-11.58,5.65-.55.55-2.06,1.58-4.08,2.82-2,1.28-4.51,2.79-7.05,4.37-5.1,3.14-10.3,6.6-12.54,7.84l-.37.29c-2.38,1.47-5.03,3.61-6.39,5.71-.53,1.09-1,2.28-1.47,3.44.63,0,1.23.01,1.78.07-.9.63-1.8,1.25-1.87,1.84-1.2,2.23.55,2.3,2.2,2.99.92.15.9,1.5,2.1,1.45-.58.4-.86.62-1.43,1.03.34.56,1.49-1.62,1.77-.47-.69.22-1.03,1.01-1.6,1.42.74.54,2.1-1.26,2.56-.49-.18.38-2.27.29-1.71,1.22.12.19.68-.22.96-.43-1.47,1.61-1.73,3.14.53,2.85-.54.39-1.58.63-2.04,1.19h.02c.3-.18.92-.39,1.18-.58l-.98.71c.15.08.3.15.45.22.32-.08.62-.19.88-.37l-.65.47c.38.15.77.27,1.17.36,1.18-.05,2.52.2,2.93-.1,3.55-2.11,7.03-4.27,10.44-6.5Z"/>
          </g>
          <g class="cls-14">
            <path class="cls-1" d="M267.3,334.9c.23-.33.41-.7.58-.81.44-.16-.15,1.08.29.91l.39-.52c.01.35-.03.77-.03,1.15.38.16.79.27,1.24.35.14-.19.27-.37.35-.41.24-.03.29.29.43.49l.15-.02c.11-.09.26-.26.35-.37.07.09.11.2.13.31,1.74-.23,3.7-.5,5.78-.5.64-.2,1.3-.38,1.71-.35.49.17.57.88.79,1.27,1.7-1.57,3.31-1.4,4.98-3.04.18.3.43.74.97.36,1.59-1.14,3.54-2.31,5.13-2.15.47.18.16,1.17.57,1.07.65-.17.83-1.23,1.47-1.4-1.29-3.09-3.95-4.84-6.12-6.99-.73,0-2.43-1.12-4.14-2.27-1.71-1.16-3.44-2.39-4.04-3.06l-.15-.07c-.72-.63-1.79-1.12-2.92-.77-.59.28-1.24.66-1.86,1.03-.05.41-.11.82-.19,1.21-.28-.23-.56-.45-.88-.15-1.14.5-1.32,1.71-1.87,3.21-.17.69-.92,1.48-1.01,2.23-.16-.13-.25-.2-.41-.33-.34.56.73.02.07.88-.05-.31-.44-.07-.6-.2-.37.81.45.64,0,1.37-.19.12.09-1.31-.48-.38-.11.19.04.31.12.38-.71-.01-1.48.74-1.59,2.04-.14-.12-.15-.65-.39-.62v.02c.06.08.1.36.17.42l-.26-.21-.17.43c0,.16.03.29.09.35l-.17-.14c-.12.34-.23.67-.33.98-.12.74-.41,1.75-.31,1.84.67.97,1.35,1.82,2.16,2.45Z"/>
          </g>
          <g class="cls-12">
            <path class="cls-8" d="M303.03,361.88c.36.19.9-.01.79.66-.53,2.04-2.55,2.86-3.14,4.86l.51.43c-.98,1.28-2.04,2.59-3.16,3.9-1.45,2.74-2.78,5.54-4.24,8.26.25.06.45.14.37.44-.52,1.18-1.64,2.59-2.67,4.12-.12.25-.24.5-.35.74,0,.25.17.42.27.52-.48.68-.94,1.27-1.38,1.81-3.91,8.27-8.2,16.66-13.63,25.38-.96,2-1.94,4.02-3.11,5.77-.91,1.26-2.17,2.48-3.43,3.7-1.26,1.21-2.52,2.41-3.61,3.44,1.99,1.27-2.5,7.29.17,7.93-1.47,1.44-3.81,3.44-3.48,4.03.49.88.83,2,.62,3.49-.22,1.47-.91,3.38-2.67,5.62-1.49,1.64-4.57,3.19-4.9,3.99-.53,1.27,3.04-.78,2.52.48,6.54-4.97,12.37-10.56,17.97-16.35,5.5-5.9,10.74-12.04,15.88-18.47.71-1.23,2.57-4.11,5.16-7.76,1.24-1.86,2.63-3.95,4.1-6.16,1.49-2.19,2.93-4.6,4.46-6.98,2.99-4.81,5.92-9.8,8.33-14.16,1.25-2.15,2.29-4.19,3.23-5.92.95-1.72,1.74-3.17,2.32-4.23l.35-.81c1.18-2.36,2.47-4.99,3.49-7.63.99-2.65,1.85-5.24,2.3-7.46.24-2.11.39-4.28.54-6.42-.7.75-1.38,1.44-2.01,2.01.8-1.92,1.62-3.83,1.5-4.73.54-4.51-1.38-2.52-3.41-1.49-1.05.89-1.47-.99-2.8.51.53-1.24.73-1.88,1.22-3.14-.55-.36-1.08,4.03-1.78,2.77.71-1.12.78-2.63,1.27-3.88-.98.14-1.86,4.27-2.64,3.75.11-.72,2.39-3.13,1.46-3.74-.19-.12-.66,1.13-.9,1.75,1.05-4,.81-6.44-1.54-3.33.46-1.2,1.5-2.77,1.81-4.11,0,0-.01,0-.02,0-.26.63-.86,1.66-1.09,2.25l.82-2.17c-.19.07-.37.15-.56.24-.32.5-.61,1.01-.83,1.57l.55-1.44c-.46.25-.93.55-1.4.91-1.27,1.49-2.81,2.77-3.15,3.68-3.23,7.2-6.57,14.34-10.12,21.33Z"/>
          </g>
        </g>
        <g>
          <path class="cls-6" d="M-46.5,274.45c-.28-.29-1.01-.09-.47-.96,1.83-2.59,4.62-3.42,6.5-5.96l-.31-.62c1.89-1.55,3.88-3.14,5.96-4.7,3.33-3.38,6.56-6.85,9.9-10.18-.25-.09-.45-.21-.16-.59,1.32-1.46,3.46-3.15,5.59-5,.29-.3.57-.61.86-.9.15-.32.06-.54,0-.68.97-.82,1.86-1.53,2.7-2.17,9.54-10.1,19.57-20.15,31.16-30.36,2.31-2.35,4.63-4.72,7.05-6.75,1.82-1.47,4.08-2.85,6.32-4.24,2.25-1.37,4.48-2.74,6.42-3.92-1.85-1.57,7.01-8.4,3.91-9.22,2.6-1.61,6.63-3.83,6.5-4.52-.19-1.02-.06-2.32.94-4.01,1.01-1.67,2.83-3.82,6.17-6.28,2.7-1.79,7.44-3.45,8.25-4.34,1.28-1.41-4.32.79-3.05-.62-2.68,1.37-5.34,2.75-7.98,4.15-2.63,1.41-5.19,2.93-7.77,4.41l-3.85,2.24c-1.27.76-2.52,1.56-3.77,2.35l-7.5,4.75c-9.85,6.57-19.5,13.45-29.15,20.77-1.53,1.4-5.3,4.73-10.38,8.92-2.49,2.16-5.28,4.57-8.23,7.12-1.49,1.26-2.98,2.61-4.49,3.98-1.52,1.37-3.06,2.75-4.61,4.15-6.16,5.62-12.34,11.5-17.54,16.67-2.65,2.54-4.97,4.97-7.01,7.04-2.05,2.05-3.76,3.77-5.02,5.03l-.85.98c-2.66,2.84-5.6,5.99-8.23,9.2-2.61,3.24-5.04,6.43-6.84,9.21-1.49,2.68-2.92,5.47-4.34,8.22,1.19-.86,2.31-1.63,3.32-2.27-1.99,2.36-3.99,4.71-4.39,5.9-3.23,5.8-.04,3.56,2.71,2.56,1.65-.99.95,1.56,3.27-.18-1.32,1.53-1.91,2.36-3.19,3.93.19.29,1.07-.99,1.91-2.13.83-1.14,1.68-2.09,1.64-1.22-1.43,1.35-2.42,3.35-3.69,4.92,1.12-.02,4.54-5.33,5.06-4.51-.56.94-4.42,3.73-3.81,4.7.13.19,1.38-1.38,2.01-2.17-3.53,5.12-4.78,8.44-.4,4.7-1.22,1.53-3.28,3.44-4.42,5.16,0,0,.02,0,.02,0,.66-.8,1.93-2.07,2.52-2.81-.73.92-1.47,1.83-2.2,2.75.23-.05.48-.13.74-.21.64-.61,1.27-1.24,1.84-1.96-.48.61-.97,1.21-1.46,1.82.64-.25,1.32-.57,2.02-.96,2.25-1.77,4.67-3.22,5.6-4.39,7.9-9.1,15.95-18.1,24.21-26.81Z"/>
          <g class="cls-11">
            <path class="cls-5" d="M-27.72,294.72c-.27-.3-.85-.3-.51-.89,1.23-1.75,3.42-1.86,4.68-3.57l-.33-.58c1.38-.89,2.85-1.78,4.35-2.67,2.32-2.15,4.55-4.38,6.85-6.53-.22-.13-.39-.27-.2-.54.89-.97,2.43-1.96,3.92-3.1.19-.2.39-.4.58-.6.08-.24-.02-.45-.08-.59.68-.51,1.31-.93,1.91-1.31,6.43-6.73,13.17-13.51,20.97-20.38,1.51-1.67,3.03-3.34,4.67-4.71,2.51-1.88,6.17-3.52,8.82-5.01-1.58-1.76,4.39-6.41,1.96-7.72,1.81-.99,4.59-2.35,4.43-3.01-.48-1.93-.17-4.74,4.29-8.3,1.84-1.22,5.2-1.97,5.72-2.67.82-1.1-3.14.01-2.33-1.09-7.52,3.23-14.56,7.1-21.47,11.19-6.86,4.18-13.57,8.61-20.36,13.24-1.03.97-3.66,3.15-7.2,5.87-1.75,1.39-3.7,2.95-5.77,4.6-2.09,1.63-4.21,3.45-6.41,5.23-4.35,3.61-8.73,7.37-12.45,10.67-1.89,1.62-3.55,3.18-5.02,4.48-1.46,1.32-2.7,2.39-3.61,3.18l-.61.63c-1.92,1.8-4.03,3.82-5.91,5.92-1.86,2.12-3.58,4.23-4.8,6.14-.99,1.87-1.91,3.84-2.84,5.78.93-.45,1.81-.84,2.6-1.14-1.45,1.5-2.91,2.99-3.13,3.87-2.18,3.99.34,2.85,2.62,2.64,1.32-.44,1,1.47,2.8.55-.95.97-1.39,1.49-2.32,2.49.38.54,2.52-3.36,2.7-1.93-1.07.79-1.72,2.17-2.65,3.16.97.23,3.34-3.3,3.87-2.55-.36.65-3.41,2.05-2.77,2.96.13.18,1.04-.81,1.5-1.31-2.5,3.35-3.2,5.73.17,3.68-.88.96-2.45,2.05-3.25,3.19,0,0,.01,0,.02,0,.48-.5,1.44-1.24,1.87-1.71l-1.6,1.73c.2,0,.4,0,.62-.01.49-.35.96-.72,1.37-1.17l-1.06,1.15c.53-.06,1.08-.17,1.64-.33,1.75-.93,3.68-1.57,4.35-2.3,5.76-5.61,11.55-11.19,17.39-16.65Z"/>
          </g>
          <g class="cls-16">
            <path class="cls-4" d="M-9.91,315.66c-.22-.34-.63-.55-.46-.89.66-.94,2.14-.27,2.81-1.18l-.3-.59c.85-.22,1.75-.41,2.66-.61,1.32-.93,2.57-1.94,3.84-2.94-.16-.18-.29-.36-.2-.52.48-.49,1.39-.77,2.25-1.21l.31-.31c.02-.18-.07-.39-.12-.52.39-.2.75-.33,1.1-.45,3.45-3.45,7.01-7.06,11.17-10.67.76-1.02,1.54-2.03,2.41-2.73,1.36-.91,3.44-1.31,4.9-1.87-1.13-2.03,2.05-4.54.47-6.41,1.01-.37,2.56-.87,2.4-1.51-.46-1.91-.5-4.34,1.87-6.45,1-.65,2.94-.46,3.19-.97.4-.81-1.86-.8-1.47-1.61-4.21,1.08-8.18,2.67-12.07,4.41-3.88,1.78-7.67,3.73-11.58,5.65-.55.55-2.06,1.58-4.08,2.82-2,1.28-4.51,2.79-7.05,4.37-5.1,3.14-10.3,6.6-12.54,7.84l-.37.29c-2.38,1.47-5.03,3.61-6.39,5.71-.53,1.09-1,2.28-1.47,3.44.63,0,1.23.01,1.78.07-.9.63-1.8,1.25-1.87,1.84-1.2,2.23.55,2.3,2.2,2.99.92.15.9,1.5,2.1,1.45-.58.4-.86.62-1.43,1.03.34.56,1.49-1.62,1.77-.47-.69.22-1.03,1.01-1.6,1.42.74.54,2.1-1.26,2.56-.49-.18.38-2.27.29-1.71,1.22.12.19.68-.22.96-.43-1.47,1.61-1.73,3.14.53,2.85-.54.39-1.58.63-2.04,1.19h.02c.3-.18.92-.39,1.18-.58l-.98.71c.15.08.3.15.45.22.32-.08.62-.19.88-.37l-.65.47c.38.15.77.27,1.17.36,1.18-.05,2.52.2,2.93-.1,3.55-2.11,7.03-4.27,10.44-6.5Z"/>
          </g>
          <g class="cls-14">
            <path class="cls-1" d="M-2.7,334.9c.23-.33.41-.7.58-.81.44-.16-.15,1.08.29.91l.39-.52c.01.35-.03.77-.03,1.15.38.16.79.27,1.24.35.14-.19.27-.37.35-.41.24-.03.29.29.43.49l.15-.02c.11-.09.26-.26.35-.37.07.09.11.2.13.31,1.74-.23,3.7-.5,5.78-.5.64-.2,1.3-.38,1.71-.35.49.17.57.88.79,1.27,1.7-1.57,3.31-1.4,4.98-3.04.18.3.43.74.97.36,1.59-1.14,3.54-2.31,5.13-2.15.47.18.16,1.17.57,1.07.65-.17.83-1.23,1.47-1.4-1.29-3.09-3.95-4.84-6.12-6.99-.73,0-2.43-1.12-4.14-2.27-1.71-1.16-3.44-2.39-4.04-3.06l-.15-.07c-.72-.63-1.79-1.12-2.92-.77-.59.28-1.24.66-1.86,1.03-.05.41-.11.82-.19,1.21-.28-.23-.56-.45-.88-.15-1.14.5-1.32,1.71-1.87,3.21-.17.69-.92,1.48-1.01,2.23-.16-.13-.25-.2-.41-.33-.34.56.73.02.07.88-.05-.31-.44-.07-.6-.2-.37.81.45.64,0,1.37-.19.12.09-1.31-.48-.38-.11.19.04.31.12.38-.71-.01-1.48.74-1.59,2.04-.14-.12-.15-.65-.39-.62v.02c.06.08.1.36.17.42l-.26-.21-.17.43c0,.16.03.29.09.35l-.17-.14c-.12.34-.23.67-.33.98-.12.74-.41,1.75-.31,1.84.67.97,1.35,1.82,2.16,2.45Z"/>
          </g>
          <g class="cls-15">
            <path class="cls-2" d="M13.19,343.54c.39.12.83.04.92.4.11,1.09-1.47,1.45-1.41,2.53l.6.27c-.52.66-1.08,1.33-1.67,1.99-.45,1.45-.78,2.95-1.18,4.42.24.05.45.12.47.29-.08.65-.63,1.38-1.03,2.19-.01.14-.04.28-.06.41.09.15.28.27.41.34-.19.37-.4.67-.61.95-.68,4.6-1.49,9.42-2.96,14.56-.08,1.23-.19,2.47-.54,3.51-.65,1.46-2.21,2.82-3.15,4.02,2.01,1.17.54,4.89,2.84,5.74-.68.83-1.79,2.01-1.34,2.49,1.33,1.43,2.57,3.56,1.43,6.59-.59,1.06-2.42,1.83-2.41,2.41.01.91,2.04-.18,2.05.73,3.33-3,6.07-6.43,8.62-9.99,2.5-3.6,4.74-7.35,7.01-11.19.17-.78.86-2.51,1.88-4.7.47-1.12,1.01-2.36,1.59-3.67.57-1.31,1.12-2.72,1.72-4.12,2.34-5.64,4.29-11.69,5.26-14.12l.1-.46c.44-1.35.89-2.86,1.11-4.37.22-1.51.32-2.99.15-4.25-.31-1.19-.74-2.41-1.16-3.59-.47.43-.94.81-1.38,1.13.26-1.07.54-2.14.19-2.63-.6-2.47-1.95-1.34-3.64-.76-.78.49-1.67-.51-2.54.31.17-.67.22-1.01.37-1.69-.62-.19-.02,2.16-1,1.5.37-.61.08-1.41.23-2.08-.91.09-.7,2.29-1.56,2.02-.11-.39,1.48-1.69.44-1.99-.21-.06-.35.6-.42.94,0-2.13-.85-3.38-2.31-1.72.13-.63.73-1.47.7-2.17h-.02c-.09.34-.41.88-.47,1.19l.24-1.14c-.16.04-.32.09-.48.14-.18.27-.33.54-.39.83l.16-.75c-.38.14-.75.31-1.11.5-.84.79-1.99,1.46-2.08,1.93-1.19,3.7-2.37,7.4-3.55,11.08Z"/>
          </g>
          <g class="cls-12">
            <path class="cls-8" d="M33.03,361.88c.36.19.9-.01.79.66-.53,2.04-2.55,2.86-3.14,4.86l.51.43c-.98,1.28-2.04,2.59-3.16,3.9-1.45,2.74-2.78,5.54-4.24,8.26.25.06.45.14.37.44-.52,1.18-1.64,2.59-2.67,4.12-.12.25-.24.5-.35.74,0,.25.17.42.27.52-.48.68-.94,1.27-1.38,1.81-3.91,8.27-8.2,16.66-13.63,25.38-.96,2-1.94,4.02-3.11,5.77-.91,1.26-2.17,2.48-3.43,3.7-1.26,1.21-2.52,2.41-3.61,3.44,1.99,1.27-2.5,7.29.17,7.93-1.47,1.44-3.81,3.44-3.48,4.03.49.88.83,2,.62,3.49-.22,1.47-.91,3.38-2.67,5.62-1.49,1.64-4.57,3.19-4.9,3.99-.53,1.27,3.04-.78,2.52.48,6.54-4.97,12.37-10.56,17.97-16.35,5.5-5.9,10.74-12.04,15.88-18.47.71-1.23,2.57-4.11,5.16-7.76,1.24-1.86,2.63-3.95,4.1-6.16,1.49-2.19,2.93-4.6,4.46-6.98,2.99-4.81,5.92-9.8,8.33-14.16,1.25-2.15,2.29-4.19,3.23-5.92.95-1.72,1.74-3.17,2.32-4.23l.35-.81c1.18-2.36,2.47-4.99,3.49-7.63.99-2.65,1.85-5.24,2.3-7.46.24-2.11.39-4.28.54-6.42-.7.75-1.38,1.44-2.01,2.01.8-1.92,1.62-3.83,1.5-4.73.54-4.51-1.38-2.52-3.41-1.49-1.05.89-1.47-.99-2.8.51.53-1.24.73-1.88,1.22-3.14-.55-.36-1.08,4.03-1.78,2.77.71-1.12.78-2.63,1.27-3.88-.98.14-1.86,4.27-2.64,3.75.11-.72,2.39-3.13,1.46-3.74-.19-.12-.66,1.13-.9,1.75,1.05-4,.81-6.44-1.54-3.33.46-1.2,1.5-2.77,1.81-4.11,0,0-.01,0-.02,0-.26.63-.86,1.66-1.09,2.25l.82-2.17c-.19.07-.37.15-.56.24-.32.5-.61,1.01-.83,1.57l.55-1.44c-.46.25-.93.55-1.4.91-1.27,1.49-2.81,2.77-3.15,3.68-3.23,7.2-6.57,14.34-10.12,21.33Z"/>
          </g>
        </g>
        <g>
          <g class="cls-12">
            <path class="cls-8" d="M303.03,25.02c.36.19.9-.01.79.66-.53,2.04-2.55,2.86-3.14,4.86l.51.43c-.98,1.28-2.04,2.59-3.16,3.9-1.45,2.74-2.78,5.54-4.24,8.26.25.06.45.14.37.44-.52,1.18-1.64,2.59-2.67,4.12-.12.25-.24.5-.35.74,0,.25.17.42.27.52-.48.68-.94,1.27-1.38,1.81-3.91,8.27-8.2,16.66-13.63,25.38-.96,2-1.94,4.02-3.11,5.77-.91,1.26-2.17,2.48-3.43,3.7-1.26,1.21-2.52,2.41-3.61,3.44,1.99,1.27-2.5,7.29.17,7.93-1.47,1.44-3.81,3.44-3.48,4.03.49.88.83,2,.62,3.49-.22,1.47-.91,3.38-2.67,5.62-1.49,1.64-4.57,3.19-4.9,3.99-.53,1.27,3.04-.78,2.52.48,6.54-4.97,12.37-10.56,17.97-16.35,5.5-5.9,10.74-12.04,15.88-18.47.71-1.23,2.57-4.11,5.16-7.76,1.24-1.86,2.63-3.95,4.1-6.16,1.49-2.19,2.93-4.6,4.46-6.98,2.99-4.81,5.92-9.8,8.33-14.16,1.25-2.15,2.29-4.19,3.23-5.92.95-1.72,1.74-3.17,2.32-4.23l.35-.81c1.18-2.36,2.47-4.99,3.49-7.63.99-2.65,1.85-5.24,2.3-7.46.24-2.11.39-4.28.54-6.42-.7.75-1.38,1.44-2.01,2.01.8-1.92,1.62-3.83,1.5-4.73.54-4.51-1.38-2.52-3.41-1.49-1.05.89-1.47-.99-2.8.51.53-1.24.73-1.88,1.22-3.14-.55-.36-1.08,4.03-1.78,2.77.71-1.12.78-2.63,1.27-3.88-.98.14-1.86,4.27-2.64,3.75.11-.72,2.39-3.13,1.46-3.74-.19-.12-.66,1.13-.9,1.75,1.05-4,.81-6.44-1.54-3.33.46-1.2,1.5-2.77,1.81-4.11,0,0-.01,0-.02,0-.26.63-.86,1.66-1.09,2.25l.82-2.17c-.19.07-.37.15-.56.24-.32.5-.61,1.01-.83,1.57l.55-1.44c-.46.25-.93.55-1.4.91-1.27,1.49-2.81,2.77-3.15,3.68-3.23,7.2-6.57,14.34-10.12,21.33Z"/>
          </g>
          <g class="cls-13">
            <path class="cls-7" d="M322.53,44.35c.34.22,1-.14.69.82-1.16,2.92-3.68,4.34-4.91,7.22l.45.53c-1.47,1.92-3.03,3.91-4.7,5.87-2.47,4-4.79,8.07-7.32,12,.27.03.48.11.29.54-.96,1.69-2.66,3.8-4.32,6.03-.21.35-.43.71-.64,1.05-.07.34.06.54.15.66-.77,1-1.48,1.87-2.16,2.66-7.1,11.78-14.8,23.58-24.13,35.75-1.8,2.73-3.62,5.47-5.6,7.91-1.49,1.78-3.46,3.53-5.39,5.3-1.95,1.75-3.88,3.49-5.56,5,2.1,1.21-5.36,9.47-2.18,9.74-2.26,2.05-5.84,4.91-5.6,5.56.36.97.46,2.27-.23,4.1-.71,1.81-2.12,4.26-5.02,7.23-2.37,2.21-6.76,4.62-7.41,5.63-1.03,1.6,4.13-1.49,3.1.11,2.42-1.79,4.82-3.59,7.19-5.41,2.36-1.83,4.62-3.77,6.91-5.67l3.41-2.87c1.12-.97,2.2-1.98,3.3-2.98l6.54-6.01c4.19-4.18,8.5-8.25,12.53-12.64,2.03-2.18,4.14-4.29,6.13-6.54,2.01-2.23,4.02-4.47,6.04-6.72,1.23-1.66,4.24-5.69,8.38-10.81,1.99-2.62,4.22-5.55,6.59-8.66,1.2-1.54,2.37-3.17,3.55-4.83,1.19-1.66,2.4-3.34,3.62-5.03,4.81-6.8,9.54-13.89,13.44-20.1,2.02-3.06,3.71-5.97,5.22-8.44,1.52-2.47,2.79-4.53,3.72-6.05l.6-1.15c1.91-3.38,4.04-7.13,5.82-10.88,1.75-3.77,3.34-7.45,4.4-10.58.78-2.97,1.47-6.02,2.17-9.03-.94,1.12-1.83,2.14-2.65,3.01,1.34-2.77,2.7-5.53,2.79-6.79,1.65-6.42-.86-3.45-3.27-1.79-1.34,1.36-1.31-1.26-3.12.98.9-1.8,1.25-2.75,2.08-4.58-.25-.24-.78,1.22-1.3,2.53-.51,1.31-1.1,2.43-1.28,1.58,1.05-1.65,1.48-3.83,2.31-5.65-1.07.3-3.03,6.26-3.74,5.6.32-1.04,3.32-4.69,2.49-5.47-.17-.16-.98,1.67-1.39,2.59,2.1-5.81,2.46-9.3-.82-4.62.79-1.77,2.28-4.12,2.95-6.07,0,0-.01,0-.02,0-.43.93-1.33,2.47-1.71,3.33.47-1.06.95-2.13,1.42-3.19-.21.11-.43.25-.66.39-.46.75-.9,1.51-1.27,2.34.31-.7.63-1.41.94-2.12-.55.4-1.13.88-1.71,1.43-1.72,2.26-3.68,4.26-4.28,5.6-.62,1.35-1.3,2.68-1.99,4.01l-2.04,3.98-2.02,3.99c-.68,1.32-1.42,2.62-2.13,3.94-1.43,2.61-2.8,5.26-4.25,7.86-1.47,2.59-2.93,5.18-4.39,7.77Z"/>
          </g>
        </g>
        <g>
          <path class="cls-6" d="M88.5,106.02c-.28-.29-1.01-.09-.47-.96,1.83-2.59,4.62-3.42,6.5-5.96l-.31-.62c1.89-1.55,3.88-3.14,5.96-4.7,3.33-3.38,6.56-6.85,9.9-10.18-.25-.09-.45-.21-.16-.59,1.32-1.46,3.46-3.15,5.59-5,.29-.3.57-.61.86-.9.15-.32.06-.54,0-.68.97-.82,1.86-1.53,2.7-2.17,9.54-10.1,19.57-20.15,31.16-30.36,2.31-2.35,4.63-4.72,7.05-6.75,1.82-1.47,4.08-2.85,6.32-4.24,2.25-1.37,4.48-2.74,6.42-3.92-1.85-1.57,7.01-8.4,3.91-9.22,2.6-1.61,6.63-3.83,6.5-4.52-.19-1.02-.06-2.32.94-4.01,1.01-1.67,2.83-3.82,6.17-6.28,2.7-1.79,7.44-3.45,8.25-4.34,1.28-1.41-4.32.79-3.05-.62-2.68,1.37-5.34,2.75-7.98,4.15-2.63,1.41-5.19,2.93-7.77,4.41l-3.85,2.24c-1.27.76-2.52,1.56-3.77,2.35l-7.5,4.75c-9.85,6.57-19.5,13.45-29.15,20.77-1.53,1.4-5.3,4.73-10.38,8.92-2.49,2.16-5.28,4.57-8.23,7.12-1.49,1.26-2.98,2.61-4.49,3.98-1.52,1.37-3.06,2.75-4.61,4.15-6.16,5.62-12.34,11.5-17.54,16.67-2.65,2.54-4.97,4.97-7.01,7.04-2.05,2.05-3.76,3.77-5.02,5.03l-.85.98c-2.66,2.84-5.6,5.99-8.23,9.2-2.61,3.24-5.04,6.43-6.84,9.21-1.49,2.68-2.92,5.47-4.34,8.22,1.19-.86,2.31-1.63,3.32-2.27-1.99,2.36-3.99,4.71-4.39,5.9-3.23,5.8-.04,3.56,2.71,2.56,1.65-.99.95,1.56,3.27-.18-1.32,1.53-1.91,2.36-3.19,3.93.19.29,1.07-.99,1.91-2.13.83-1.14,1.68-2.09,1.64-1.22-1.43,1.35-2.42,3.35-3.69,4.92,1.12-.02,4.54-5.33,5.06-4.51-.56.94-4.42,3.73-3.81,4.7.13.19,1.38-1.38,2.01-2.17-3.53,5.12-4.78,8.44-.4,4.7-1.22,1.53-3.28,3.44-4.42,5.16,0,0,.02,0,.02,0,.66-.8,1.93-2.07,2.52-2.81-.73.92-1.47,1.83-2.2,2.75.23-.05.48-.13.74-.21.64-.61,1.27-1.24,1.84-1.96-.48.61-.97,1.21-1.46,1.82.64-.25,1.32-.57,2.02-.96,2.25-1.77,4.67-3.22,5.6-4.39,7.9-9.1,15.95-18.1,24.21-26.81Z"/>
          <g class="cls-11">
            <path class="cls-5" d="M107.28,126.29c-.27-.3-.85-.3-.51-.89,1.23-1.75,3.42-1.86,4.68-3.57l-.33-.58c1.38-.89,2.85-1.78,4.35-2.67,2.32-2.15,4.55-4.38,6.85-6.53-.22-.13-.39-.27-.2-.54.89-.97,2.43-1.96,3.92-3.1.19-.2.39-.4.58-.6.08-.24-.02-.45-.08-.59.68-.51,1.31-.93,1.91-1.31,6.43-6.73,13.17-13.51,20.97-20.38,1.51-1.67,3.03-3.34,4.67-4.71,2.51-1.88,6.17-3.52,8.82-5.01-1.58-1.76,4.39-6.41,1.96-7.72,1.81-.99,4.59-2.35,4.43-3.01-.48-1.93-.17-4.74,4.29-8.3,1.84-1.22,5.2-1.97,5.72-2.67.82-1.1-3.14.01-2.33-1.09-7.52,3.23-14.56,7.1-21.47,11.19-6.86,4.18-13.57,8.61-20.36,13.24-1.03.97-3.66,3.15-7.2,5.87-1.75,1.39-3.7,2.95-5.77,4.6-2.09,1.63-4.21,3.45-6.41,5.23-4.35,3.61-8.73,7.37-12.45,10.67-1.89,1.62-3.55,3.18-5.02,4.48-1.46,1.32-2.7,2.39-3.61,3.18l-.61.63c-1.92,1.8-4.03,3.82-5.91,5.92-1.86,2.12-3.58,4.23-4.8,6.14-.99,1.87-1.91,3.84-2.84,5.78.93-.45,1.81-.84,2.6-1.14-1.45,1.5-2.91,2.99-3.13,3.87-2.18,3.99.34,2.85,2.62,2.64,1.32-.44,1,1.47,2.8.55-.95.97-1.39,1.49-2.32,2.49.38.54,2.52-3.36,2.7-1.93-1.07.79-1.72,2.17-2.65,3.16.97.23,3.34-3.3,3.87-2.55-.36.65-3.41,2.05-2.77,2.96.13.18,1.04-.81,1.5-1.31-2.5,3.35-3.2,5.73.17,3.68-.88.96-2.45,2.05-3.25,3.19,0,0,.01,0,.02,0,.48-.5,1.44-1.24,1.87-1.71l-1.6,1.73c.2,0,.4,0,.62-.01.49-.35.96-.72,1.37-1.17l-1.06,1.15c.53-.06,1.08-.17,1.64-.33,1.75-.93,3.68-1.57,4.35-2.3,5.76-5.61,11.55-11.19,17.39-16.65Z"/>
          </g>
          <g class="cls-16">
            <path class="cls-4" d="M125.09,147.23c-.22-.34-.63-.55-.46-.89.66-.94,2.14-.27,2.81-1.18l-.3-.59c.85-.22,1.75-.41,2.66-.61,1.32-.93,2.57-1.94,3.84-2.94-.16-.18-.29-.36-.2-.52.48-.49,1.39-.77,2.25-1.21l.31-.31c.02-.18-.07-.39-.12-.52.39-.2.75-.33,1.1-.45,3.45-3.45,7.01-7.06,11.17-10.67.76-1.02,1.54-2.03,2.41-2.73,1.36-.91,3.44-1.31,4.9-1.87-1.13-2.03,2.05-4.54.47-6.41,1.01-.37,2.56-.87,2.4-1.51-.46-1.91-.5-4.34,1.87-6.45,1-.65,2.94-.46,3.19-.97.4-.81-1.86-.8-1.47-1.61-4.21,1.08-8.18,2.67-12.07,4.41-3.88,1.78-7.67,3.73-11.58,5.65-.55.55-2.06,1.58-4.08,2.82-2,1.28-4.51,2.79-7.05,4.37-5.1,3.14-10.3,6.6-12.54,7.84l-.37.29c-2.38,1.47-5.03,3.61-6.39,5.71-.53,1.09-1,2.28-1.47,3.44.63,0,1.23.01,1.78.07-.9.63-1.8,1.25-1.87,1.84-1.2,2.23.55,2.3,2.2,2.99.92.15.9,1.5,2.1,1.45-.58.4-.86.62-1.43,1.03.34.56,1.49-1.62,1.77-.47-.69.22-1.03,1.01-1.6,1.42.74.54,2.1-1.26,2.56-.49-.18.38-2.27.29-1.71,1.22.12.19.68-.22.96-.43-1.47,1.61-1.73,3.14.53,2.85-.54.39-1.58.63-2.04,1.19h.02c.3-.18.92-.39,1.18-.58l-.98.71c.15.08.3.15.45.22.32-.08.62-.19.88-.37l-.65.47c.38.15.77.27,1.17.36,1.18-.05,2.52.2,2.93-.1,3.55-2.11,7.03-4.27,10.44-6.5Z"/>
          </g>
          <g class="cls-14">
            <path class="cls-1" d="M132.3,166.46c.23-.33.41-.7.58-.81.44-.16-.15,1.08.29.91l.39-.52c.01.35-.03.77-.03,1.15.38.16.79.27,1.24.35.14-.19.27-.37.35-.41.24-.03.29.29.43.49l.15-.02c.11-.09.26-.26.35-.37.07.09.11.2.13.31,1.74-.23,3.7-.5,5.78-.5.64-.2,1.3-.38,1.71-.35.49.17.57.88.79,1.27,1.7-1.57,3.31-1.4,4.98-3.04.18.3.43.74.97.36,1.59-1.14,3.54-2.31,5.13-2.15.47.18.16,1.17.57,1.07.65-.17.83-1.23,1.47-1.4-1.29-3.09-3.95-4.84-6.12-6.99-.73,0-2.43-1.12-4.14-2.27-1.71-1.16-3.44-2.39-4.04-3.06l-.15-.07c-.72-.63-1.79-1.12-2.92-.77-.59.28-1.24.66-1.86,1.03-.05.41-.11.82-.19,1.21-.28-.23-.56-.45-.88-.15-1.14.5-1.32,1.71-1.87,3.21-.17.69-.92,1.48-1.01,2.23-.16-.13-.25-.2-.41-.33-.34.56.73.02.07.88-.05-.31-.44-.07-.6-.2-.37.81.45.64,0,1.37-.19.12.09-1.31-.48-.38-.11.19.04.31.12.38-.71-.01-1.48.74-1.59,2.04-.14-.12-.15-.65-.39-.62v.02c.06.08.1.36.17.42l-.26-.21-.17.43c0,.16.03.29.09.35l-.17-.14c-.12.34-.23.67-.33.98-.12.74-.41,1.75-.31,1.84.67.97,1.35,1.82,2.16,2.45Z"/>
          </g>
          <g class="cls-15">
            <path class="cls-2" d="M148.19,175.11c.39.12.83.04.92.4.11,1.09-1.47,1.45-1.41,2.53l.6.27c-.52.66-1.08,1.33-1.67,1.99-.45,1.45-.78,2.95-1.18,4.42.24.05.45.12.47.29-.08.65-.63,1.38-1.03,2.19-.01.14-.04.28-.06.41.09.15.28.27.41.34-.19.37-.4.67-.61.95-.68,4.6-1.49,9.42-2.96,14.56-.08,1.23-.19,2.47-.54,3.51-.65,1.46-2.21,2.82-3.15,4.02,2.01,1.17.54,4.89,2.84,5.74-.68.83-1.79,2.01-1.34,2.49,1.33,1.43,2.57,3.56,1.43,6.59-.59,1.06-2.42,1.83-2.41,2.41.01.91,2.04-.18,2.05.73,3.33-3,6.07-6.43,8.62-9.99,2.5-3.6,4.74-7.35,7.01-11.19.17-.78.86-2.51,1.88-4.7.47-1.12,1.01-2.36,1.59-3.67.57-1.31,1.12-2.72,1.72-4.12,2.34-5.64,4.29-11.69,5.26-14.12l.1-.46c.44-1.35.89-2.86,1.11-4.37.22-1.51.32-2.99.15-4.25-.31-1.19-.74-2.41-1.16-3.59-.47.43-.94.81-1.38,1.13.26-1.07.54-2.14.19-2.63-.6-2.47-1.95-1.34-3.64-.76-.78.49-1.67-.51-2.54.31.17-.67.22-1.01.37-1.69-.62-.19-.02,2.16-1,1.5.37-.61.08-1.41.23-2.08-.91.09-.7,2.29-1.56,2.02-.11-.39,1.48-1.69.44-1.99-.21-.06-.35.6-.42.94,0-2.13-.85-3.38-2.31-1.72.13-.63.73-1.47.7-2.17h-.02c-.09.34-.41.88-.47,1.19l.24-1.14c-.16.04-.32.09-.48.14-.18.27-.33.54-.39.83l.16-.75c-.38.14-.75.31-1.11.5-.84.79-1.99,1.46-2.08,1.93-1.19,3.7-2.37,7.4-3.55,11.08Z"/>
          </g>
          <g class="cls-12">
            <path class="cls-8" d="M168.03,193.45c.36.19.9-.01.79.66-.53,2.04-2.55,2.86-3.14,4.86l.51.43c-.98,1.28-2.04,2.59-3.16,3.9-1.45,2.74-2.78,5.54-4.24,8.26.25.06.45.14.37.44-.52,1.18-1.64,2.59-2.67,4.12-.12.25-.24.5-.35.74,0,.25.17.42.27.52-.48.68-.94,1.27-1.38,1.81-3.91,8.27-8.2,16.66-13.63,25.38-.96,2-1.94,4.02-3.11,5.77-.91,1.26-2.17,2.48-3.43,3.7-1.26,1.21-2.52,2.41-3.61,3.44,1.99,1.27-2.5,7.29.17,7.93-1.47,1.44-3.81,3.44-3.48,4.03.49.88.83,2,.62,3.49-.22,1.47-.91,3.38-2.67,5.62-1.49,1.64-4.57,3.19-4.9,3.99-.53,1.27,3.04-.78,2.52.48,6.54-4.97,12.37-10.56,17.97-16.35,5.5-5.9,10.74-12.04,15.88-18.47.71-1.23,2.57-4.11,5.16-7.76,1.24-1.86,2.63-3.95,4.1-6.16,1.49-2.19,2.93-4.6,4.46-6.98,2.99-4.81,5.92-9.8,8.33-14.16,1.25-2.15,2.29-4.19,3.23-5.92.95-1.72,1.74-3.17,2.32-4.23l.35-.81c1.18-2.36,2.47-4.99,3.49-7.63.99-2.65,1.85-5.24,2.3-7.46.24-2.11.39-4.28.54-6.42-.7.75-1.38,1.44-2.01,2.01.8-1.92,1.62-3.83,1.5-4.73.54-4.51-1.38-2.52-3.41-1.49-1.05.89-1.47-.99-2.8.51.53-1.24.73-1.88,1.22-3.14-.55-.36-1.08,4.03-1.78,2.77.71-1.12.78-2.63,1.27-3.88-.98.14-1.86,4.27-2.64,3.75.11-.72,2.39-3.13,1.46-3.74-.19-.12-.66,1.13-.9,1.75,1.05-4,.81-6.44-1.54-3.33.46-1.2,1.5-2.77,1.81-4.11,0,0-.01,0-.02,0-.26.63-.86,1.66-1.09,2.25l.82-2.17c-.19.07-.37.15-.56.24-.32.5-.61,1.01-.83,1.57l.55-1.44c-.46.25-.93.55-1.4.91-1.27,1.49-2.81,2.77-3.15,3.68-3.23,7.2-6.57,14.34-10.12,21.33Z"/>
          </g>
          <g class="cls-13">
            <path class="cls-7" d="M187.53,212.79c.34.22,1-.14.69.82-1.16,2.92-3.68,4.34-4.91,7.22l.45.53c-1.47,1.92-3.03,3.91-4.7,5.87-2.47,4-4.79,8.07-7.32,12,.27.03.48.11.29.54-.96,1.69-2.66,3.8-4.32,6.03-.21.35-.43.71-.64,1.05-.07.34.06.54.15.66-.77,1-1.48,1.87-2.16,2.66-7.1,11.78-14.8,23.58-24.13,35.75-1.8,2.73-3.62,5.47-5.6,7.91-1.49,1.78-3.46,3.53-5.39,5.3-1.95,1.75-3.88,3.49-5.56,5,2.1,1.21-5.36,9.47-2.18,9.74-2.26,2.05-5.84,4.91-5.6,5.56.36.97.46,2.27-.23,4.1-.71,1.81-2.12,4.26-5.02,7.23-2.37,2.21-6.76,4.62-7.41,5.63-1.03,1.6,4.13-1.49,3.1.11,2.42-1.79,4.82-3.59,7.19-5.41,2.36-1.83,4.62-3.77,6.91-5.67l3.41-2.87c1.12-.97,2.2-1.98,3.3-2.98l6.54-6.01c4.19-4.18,8.5-8.25,12.53-12.64,2.03-2.18,4.14-4.29,6.13-6.54,2.01-2.23,4.02-4.47,6.04-6.72,1.23-1.66,4.24-5.69,8.38-10.81,1.99-2.62,4.22-5.55,6.59-8.66,1.2-1.54,2.37-3.17,3.55-4.83,1.19-1.66,2.4-3.34,3.62-5.03,4.81-6.8,9.54-13.89,13.44-20.1,2.02-3.06,3.71-5.97,5.22-8.44,1.52-2.47,2.79-4.53,3.72-6.05l.6-1.15c1.91-3.38,4.04-7.13,5.82-10.88,1.75-3.77,3.34-7.45,4.4-10.58.78-2.97,1.47-6.02,2.17-9.03-.94,1.12-1.83,2.14-2.65,3.01,1.34-2.77,2.7-5.53,2.79-6.79,1.65-6.42-.86-3.45-3.27-1.79-1.34,1.36-1.31-1.26-3.12.98.9-1.8,1.25-2.75,2.08-4.58-.25-.24-.78,1.22-1.3,2.53-.51,1.31-1.1,2.43-1.28,1.58,1.05-1.65,1.48-3.83,2.31-5.65-1.07.3-3.03,6.26-3.74,5.6.32-1.04,3.32-4.69,2.49-5.47-.17-.16-.98,1.67-1.39,2.59,2.1-5.81,2.46-9.3-.82-4.62.79-1.77,2.28-4.12,2.95-6.07,0,0-.01,0-.02,0-.43.93-1.33,2.47-1.71,3.33.47-1.06.95-2.13,1.42-3.19-.21.11-.43.25-.66.39-.46.75-.9,1.51-1.27,2.34.31-.7.63-1.41.94-2.12-.55.4-1.13.88-1.71,1.43-1.72,2.26-3.68,4.26-4.28,5.6-.62,1.35-1.3,2.68-1.99,4.01l-2.04,3.98-2.02,3.99c-.68,1.32-1.42,2.62-2.13,3.94-1.43,2.61-2.8,5.26-4.25,7.86-1.47,2.59-2.93,5.18-4.39,7.77Z"/>
          </g>
        </g>
        <g>
          <g class="cls-15">
            <path class="cls-2" d="M13.19,6.67c.39.12.83.04.92.4.11,1.09-1.47,1.45-1.41,2.53l.6.27c-.52.66-1.08,1.33-1.67,1.99-.45,1.45-.78,2.95-1.18,4.42.24.05.45.12.47.29-.08.65-.63,1.38-1.03,2.19-.01.14-.04.28-.06.41.09.15.28.27.41.34-.19.37-.4.67-.61.95-.68,4.6-1.49,9.42-2.96,14.56-.08,1.23-.19,2.47-.54,3.51-.65,1.46-2.21,2.82-3.15,4.02,2.01,1.17.54,4.89,2.84,5.74-.68.83-1.79,2.01-1.34,2.49,1.33,1.43,2.57,3.56,1.43,6.59-.59,1.06-2.42,1.83-2.41,2.41.01.91,2.04-.18,2.05.73,3.33-3,6.07-6.43,8.62-9.99,2.5-3.6,4.74-7.35,7.01-11.19.17-.78.86-2.51,1.88-4.7.47-1.12,1.01-2.36,1.59-3.67.57-1.31,1.12-2.72,1.72-4.12,2.34-5.64,4.29-11.69,5.26-14.12l.1-.46c.44-1.35.89-2.86,1.11-4.37.22-1.51.32-2.99.15-4.25-.31-1.19-.74-2.41-1.16-3.59-.47.43-.94.81-1.38,1.13.26-1.07.54-2.14.19-2.63-.6-2.47-1.95-1.34-3.64-.76-.78.49-1.67-.51-2.54.31.17-.67.22-1.01.37-1.69-.62-.19-.02,2.16-1,1.5.37-.61.08-1.41.23-2.08-.91.09-.7,2.29-1.56,2.02-.11-.39,1.48-1.69.44-1.99-.21-.06-.35.6-.42.94,0-2.13-.85-3.38-2.31-1.72.13-.63.73-1.47.7-2.17h-.02c-.09.34-.41.88-.47,1.19l.24-1.14c-.16.04-.32.09-.48.14-.18.27-.33.54-.39.83l.16-.75c-.38.14-.75.31-1.11.5-.84.79-1.99,1.46-2.08,1.93-1.19,3.7-2.37,7.4-3.55,11.08Z"/>
          </g>
          <g class="cls-12">
            <path class="cls-8" d="M33.03,25.02c.36.19.9-.01.79.66-.53,2.04-2.55,2.86-3.14,4.86l.51.43c-.98,1.28-2.04,2.59-3.16,3.9-1.45,2.74-2.78,5.54-4.24,8.26.25.06.45.14.37.44-.52,1.18-1.64,2.59-2.67,4.12-.12.25-.24.5-.35.74,0,.25.17.42.27.52-.48.68-.94,1.27-1.38,1.81-3.91,8.27-8.2,16.66-13.63,25.38-.96,2-1.94,4.02-3.11,5.77-.91,1.26-2.17,2.48-3.43,3.7-1.26,1.21-2.52,2.41-3.61,3.44,1.99,1.27-2.5,7.29.17,7.93-1.47,1.44-3.81,3.44-3.48,4.03.49.88.83,2,.62,3.49-.22,1.47-.91,3.38-2.67,5.62-1.49,1.64-4.57,3.19-4.9,3.99-.53,1.27,3.04-.78,2.52.48,6.54-4.97,12.37-10.56,17.97-16.35,5.5-5.9,10.74-12.04,15.88-18.47.71-1.23,2.57-4.11,5.16-7.76,1.24-1.86,2.63-3.95,4.1-6.16,1.49-2.19,2.93-4.6,4.46-6.98,2.99-4.81,5.92-9.8,8.33-14.16,1.25-2.15,2.29-4.19,3.23-5.92.95-1.72,1.74-3.17,2.32-4.23l.35-.81c1.18-2.36,2.47-4.99,3.49-7.63.99-2.65,1.85-5.24,2.3-7.46.24-2.11.39-4.28.54-6.42-.7.75-1.38,1.44-2.01,2.01.8-1.92,1.62-3.83,1.5-4.73.54-4.51-1.38-2.52-3.41-1.49-1.05.89-1.47-.99-2.8.51.53-1.24.73-1.88,1.22-3.14-.55-.36-1.08,4.03-1.78,2.77.71-1.12.78-2.63,1.27-3.88-.98.14-1.86,4.27-2.64,3.75.11-.72,2.39-3.13,1.46-3.74-.19-.12-.66,1.13-.9,1.75,1.05-4,.81-6.44-1.54-3.33.46-1.2,1.5-2.77,1.81-4.11,0,0-.01,0-.02,0-.26.63-.86,1.66-1.09,2.25l.82-2.17c-.19.07-.37.15-.56.24-.32.5-.61,1.01-.83,1.57l.55-1.44c-.46.25-.93.55-1.4.91-1.27,1.49-2.81,2.77-3.15,3.68-3.23,7.2-6.57,14.34-10.12,21.33Z"/>
          </g>
          <g class="cls-13">
            <path class="cls-7" d="M52.53,44.35c.34.22,1-.14.69.82-1.16,2.92-3.68,4.34-4.91,7.22l.45.53c-1.47,1.92-3.03,3.91-4.7,5.87-2.47,4-4.79,8.07-7.32,12,.27.03.48.11.29.54-.96,1.69-2.66,3.8-4.32,6.03-.21.35-.43.71-.64,1.05-.07.34.06.54.15.66-.77,1-1.48,1.87-2.16,2.66-7.1,11.78-14.8,23.58-24.13,35.75-1.8,2.73-3.62,5.47-5.6,7.91-1.49,1.78-3.46,3.53-5.39,5.3-1.95,1.75-3.88,3.49-5.56,5,2.1,1.21-5.36,9.47-2.18,9.74-2.26,2.05-5.84,4.91-5.6,5.56.36.97.46,2.27-.23,4.1-.71,1.81-2.12,4.26-5.02,7.23-2.37,2.21-6.76,4.62-7.41,5.63-1.03,1.6,4.13-1.49,3.1.11,2.42-1.79,4.82-3.59,7.19-5.41,2.36-1.83,4.62-3.77,6.91-5.67l3.41-2.87c1.12-.97,2.2-1.98,3.3-2.98l6.54-6.01c4.19-4.18,8.5-8.25,12.53-12.64,2.03-2.18,4.14-4.29,6.13-6.54,2.01-2.23,4.02-4.47,6.04-6.72,1.23-1.66,4.24-5.69,8.38-10.81,1.99-2.62,4.22-5.55,6.59-8.66,1.2-1.54,2.37-3.17,3.55-4.83,1.19-1.66,2.4-3.34,3.62-5.03,4.81-6.8,9.54-13.89,13.44-20.1,2.02-3.06,3.71-5.97,5.22-8.44,1.52-2.47,2.79-4.53,3.72-6.05l.6-1.15c1.91-3.38,4.04-7.13,5.82-10.88,1.75-3.77,3.34-7.45,4.4-10.58.78-2.97,1.47-6.02,2.17-9.03-.94,1.12-1.83,2.14-2.65,3.01,1.34-2.77,2.7-5.53,2.79-6.79,1.65-6.42-.86-3.45-3.27-1.79-1.34,1.36-1.31-1.26-3.12.98.9-1.8,1.25-2.75,2.08-4.58-.25-.24-.78,1.22-1.3,2.53-.51,1.31-1.1,2.43-1.28,1.58,1.05-1.65,1.48-3.83,2.31-5.65-1.07.3-3.03,6.26-3.74,5.6.32-1.04,3.32-4.69,2.49-5.47-.17-.16-.98,1.67-1.39,2.59,2.1-5.81,2.46-9.3-.82-4.62.79-1.77,2.28-4.12,2.95-6.07,0,0-.01,0-.02,0-.43.93-1.33,2.47-1.71,3.33.47-1.06.95-2.13,1.42-3.19-.21.11-.43.25-.66.39-.46.75-.9,1.51-1.27,2.34.31-.7.63-1.41.94-2.12-.55.4-1.13.88-1.71,1.43-1.72,2.26-3.68,4.26-4.28,5.6-.62,1.35-1.3,2.68-1.99,4.01l-2.04,3.98-2.02,3.99c-.68,1.32-1.42,2.62-2.13,3.94-1.43,2.61-2.8,5.26-4.25,7.86-1.47,2.59-2.93,5.18-4.39,7.77Z"/>
          </g>
        </g>
      </g>
    </pattern>
  </defs>
  <rect class="cls-9" width="612" height="792"/>
  <rect class="cls-10" width="612" height="792"/>
</svg>